<?xml version="1.0" encoding="UTF-8" standalone="no"?>
<!-- Created with Inkscape (http://www.inkscape.org/) -->

<svg
   version="1.1"
   id="svg2"
   width="693.73267"
   height="463.81195"
   viewBox="0 0 693.73267 463.81195"
   xmlns="http://www.w3.org/2000/svg"
   xmlns:svg="http://www.w3.org/2000/svg">
  <defs
     id="defs6" />
  <g
     id="g8"
     transform="translate(-492.59318,-268.83728)">
    <g
       id="g1210"
       transform="translate(71.593179,47.728813)">
      <path
         style="fill:#f7e29f"
         d="m 683,684.06487 c -5.3256,-1.62584 -10.99672,-5.19401 -13.52637,-8.51055 C 664.85664,669.50113 664,664.47641 664,643.44806 c 0,-16.61648 0.21527,-19.31669 1.58179,-19.84107 2.7235,-1.04511 9.96277,-0.66243 11.21821,0.59301 0.84605,0.84605 1.2,6.60714 1.2,19.53212 0,21.80593 0.66059,24.30436 7.21236,27.27796 8.19754,3.72055 16.74198,1.58399 20.03609,-5.01008 1.47577,-2.95417 1.74868,-6.39291 1.75,-22.05 10e-4,-13.09261 0.35459,-18.90304 1.20155,-19.75 1.71866,-1.71866 10.28183,-1.52928 11.767,0.26024 0.88722,1.06904 1.12095,6.89581 0.87244,21.75 -0.32279,19.29465 -0.46205,20.53462 -2.83944,25.2824 -4.56906,9.12467 -13.54753,13.62121 -26.79922,13.42141 -3.13543,-0.0473 -6.82578,-0.42941 -8.20078,-0.84918 z M 538.47405,682.75 c -0.25476,-0.6875 -0.57813,-11.375 -0.71862,-23.75 L 537.5,636.5 531,636.25409 c -3.575,-0.13526 -7.9625,-0.49315 -9.75,-0.79532 -3.19302,-0.53976 -3.25,-0.64316 -3.25,-5.89709 0,-3.95391 0.41227,-5.5059 1.58179,-5.95469 2.61416,-1.00315 50.24508,-0.69613 50.878,0.32794 0.91762,1.48476 1.05299,9.88549 0.17348,10.76637 -0.4386,0.43929 -4.81052,0.95597 -9.71536,1.1482 L 552,636.199 v 22.7005 c 0,16.32261 -0.33715,23.03765 -1.2,23.9005 -1.62169,1.62169 -11.72169,1.58072 -12.32595,-0.05 z m 49.19262,0.58333 C 587.3,682.96667 587,669.78167 587,654.03333 c 0,-20.93703 0.32255,-28.95588 1.2,-29.83333 1.55581,-1.55581 10.04419,-1.55581 11.6,0 0.79174,0.79174 1.2,5.04444 1.2,12.5 V 648 h 14 14 v -11.3 c 0,-7.45556 0.40826,-11.70826 1.2,-12.5 1.34478,-1.34478 9.61135,-1.6065 11.56539,-0.36616 0.98371,0.62442 1.20632,7.35493 1,30.23469 L 642.5,683.5 l -5.33118,0.30507 C 629.42233,684.24837 629,683.60587 629,671.37756 V 661 h -14 -14 v 10.3 c 0,6.67778 -0.42201,10.72201 -1.2,11.5 -1.25761,1.25761 -10.98163,1.68504 -12.13333,0.53333 z m 154.39425,-1.2195 c -1.42268,-2.65829 -1.44602,-54.52575 -0.0257,-57.17957 0.80445,-1.50312 2.11345,-1.93426 5.87264,-1.93426 5.67126,0 5.62982,-0.0392 24.05798,22.77415 6.3062,7.80683 11.80764,13.85241 12.22543,13.43462 0.41779,-0.41779 0.88317,-8.62317 1.03419,-18.23419 L 785.5,623.5 l 3.90468,-0.31959 c 2.14757,-0.17577 4.96675,-0.053 6.26484,0.27278 l 2.36017,0.59237 -0.26484,29.72722 L 797.5,683.5 l -5.64246,0.2967 -5.64246,0.29669 -9.86427,-11.79669 c -5.42535,-6.48819 -12.06512,-14.6092 -14.75506,-18.0467 -2.68993,-3.4375 -5.26402,-6.25 -5.72019,-6.25 -0.45618,0 -0.95229,7.9875 -1.10249,17.75 L 754.5,683.5 l -5.68908,0.29809 c -4.82635,0.25288 -5.84997,-0.003 -6.75,-1.68426 z m 78.33417,0.71711 c -0.45264,-0.73202 -1.00527,-13.73274 -1.22805,-28.8905 -0.37441,-25.47327 -0.26945,-27.69517 1.38639,-29.35102 1.60807,-1.60806 3.38616,-1.74798 17.36902,-1.36677 13.21057,0.36016 16.48924,0.7753 21.57755,2.73212 12.00417,4.61645 18.91049,15.2721 18.67961,28.82047 -0.19827,11.63558 -6.30763,20.91794 -17.17961,26.10214 -5.15764,2.45937 -6.56698,2.64322 -22.64096,2.95356 -13.46765,0.26002 -17.31733,0.0457 -17.96395,-1 z m 36.38677,-14.06788 c 5.21753,-3.4528 7.65633,-9.46548 7.0084,-17.27866 -0.48929,-5.90024 -2.41153,-9.3639 -7.17172,-12.92261 C 854.25529,636.79502 852.40395,636.5 843.68033,636.5 H 833.5 l -0.29638,14.5 c -0.16301,7.975 -0.0203,16.01485 0.31714,17.86634 l 0.61352,3.36635 9.31815,-0.40755 c 8.01628,-0.3506 9.87858,-0.77842 13.32943,-3.06208 z m 39.8729,14.48694 c -0.84157,-1.36245 -1.17186,-57.72359 -0.34574,-59 0.60562,-0.93573 6.179,-1.25 22.16821,-1.25 11.74756,0 22.071,0.27314 22.94098,0.60699 1.96764,0.75505 2.23986,9.84906 0.33179,11.08399 C 941.0625,635.13594 933.525,635.725 925,636 l -15.5,0.5 v 5.5 5.5 l 14.5,0.5 14.5,0.5 0.30115,5.21811 c 0.3664,6.34864 0.76602,6.19316 -16.80115,6.53713 L 909.5,660.5 v 5.5 5.5 l 15.92923,0.2763 c 9.67115,0.16776 16.44812,0.70694 17.25,1.37245 0.72642,0.60288 1.32077,2.57923 1.32077,4.39191 0,6.76129 1.12415,6.45934 -24.04797,6.45934 -12.5587,0 -23.04247,-0.3375 -23.29727,-0.75 z m 66.01191,0.0833 C 962.3,682.96667 962,669.51481 962,653.44032 c 0,-25.72811 0.18933,-29.299 1.58179,-29.83333 0.86998,-0.33385 7.76331,-0.60699 15.3185,-0.60699 20.3369,0 29.03721,3.24659 33.18661,12.38391 3.7839,8.3325 1.9765,17.68535 -4.6652,24.14032 -2.4319,2.36356 -4.4217,4.63474 -4.4217,5.04707 0,0.41233 2.7266,4.50245 6.059,9.08917 3.3325,4.58671 5.7809,8.78949 5.441,9.3395 -0.3399,0.55002 -3.7226,1.00003 -7.5171,1.00003 h -6.8991 L 994.29188,675.54005 988.5,667.0801 982.25,667.04 976,667 v 7.3 c 0,4.34444 -0.48584,7.78584 -1.2,8.5 -1.25761,1.25761 -10.98163,1.68504 -12.13333,0.53333 z m 32.20522,-30.43851 c 3.86423,-1.34708 5.12811,-3.5135 5.12811,-8.79012 0,-2.8201 -0.63786,-4.62104 -2.12857,-6.00985 -2.33762,-2.1778 -9.65803,-3.44548 -16.87143,-2.92162 l -4.5,0.3268 -0.28753,9.25 -0.28752,9.25 h 7.8883 c 4.33857,0 9.31495,-0.49733 11.05864,-1.10518 z M 659,529.42509 C 643.09651,526.54438 619.56263,518.78134 605.77852,511.86911 602.6317,510.2911 599.19091,509 598.13231,509 c -1.0586,0 -5.23393,1.56663 -9.27852,3.48141 -13.97434,6.61568 -21.74899,8.01972 -44.35379,8.00991 -18.70758,-0.008 -20.71083,-0.1922 -31,-2.84867 C 475.42267,507.8118 444.51102,485.06363 430.11908,456.28184 423.51988,443.08441 421,432.8665 421,419.30475 c 0,-19.94429 5.46786,-35.53277 17.30058,-49.3227 9.70384,-11.30893 22.10001,-19.21206 39.12855,-24.94624 l 7.92913,-2.67005 2.22416,-8.93288 c 4.35625,-17.49602 13.24063,-32.14196 28.30968,-46.66865 19.02458,-18.33985 42.25895,-27.95805 71.1079,-29.43612 l 12.5,-0.64044 6,-5.43831 c 7.50222,-6.79991 23.20766,-17.34564 30.89619,-20.74587 43.55488,-19.26204 90.6962,-7.64212 107.49481,26.49651 7.6686,15.58437 7.98646,32.0227 0.88789,45.91868 -2.46899,4.83324 -4.51058,7.2632 -8.26541,9.83775 -3.82912,2.62548 -5.01886,4.06227 -5.12589,6.19024 C 730.86298,329.37797 721.72288,338 711.1894,338 c -4.99998,0 -11.73186,-3.58937 -15.52765,-8.27919 -2.33984,-2.89095 -3.09441,-4.96197 -3.44711,-9.46097 -0.24834,-3.16791 -1.11274,-6.51394 -1.92089,-7.43561 -1.25835,-1.4351 -11.70251,-8.46648 -24.29375,-16.3554 -16.73729,-10.48659 -37.70999,-18.86524 -54.62303,-21.82206 -3.83732,-0.67086 -5.28022,0.74016 -12.18473,11.91551 -7.07988,11.4592 -12.07792,21.73652 -18.93608,38.93772 -7.6328,19.14408 -9.69098,25.4746 -8.61636,26.50204 0.47311,0.45234 4.74578,1.99832 9.49481,3.43552 7.66318,2.31909 22.54293,8.16472 71.1489,27.9514 7.58093,3.08607 14.41961,5.61104 15.19708,5.61104 0.77747,0 3.52942,-1.125 6.11543,-2.5 9.96498,-5.29843 22.70459,-1.71157 27.53244,7.75181 1.64602,3.22646 1.99849,5.41355 1.67958,10.42189 -0.37746,5.92793 -0.6908,6.63114 -4.8374,10.85622 -6.88977,7.02016 -15.62007,8.24038 -24.9398,3.48581 C 668.96642,416.94222 664,410.82391 664,407.89031 c 0,-2.48323 -1.27055,-3.19827 -17.5,-9.84859 -51.29732,-21.02006 -80.23752,-31.78784 -81.51451,-30.32911 -0.37911,0.43307 -2.29184,4.83739 -4.25052,9.78739 -8.12391,20.53084 -14.98342,33.14355 -25.2565,46.43963 -3.01316,3.89982 -5.47847,7.73303 -5.47847,8.51826 0,0.78523 5.7375,7.22817 12.75,14.31765 29.48193,29.80558 70.53294,54.49568 105.88346,63.68355 39.15501,10.17669 70.92756,2.24436 83.89605,-20.94547 4.35677,-7.79064 7.78746,-9.68663 13.01594,-7.19334 6.054,2.88696 5.86035,8.2634 -0.66,18.32357 -13.29473,20.51227 -34.84613,30.39509 -65.88545,30.21307 -6.875,-0.0403 -15.875,-0.68464 -20,-1.43183 z M 556.5,503.55885 c 6.75922,-0.51822 21.25159,-3.9556 22.71369,-5.38735 0.39253,-0.38438 -3.43247,-3.48365 -8.5,-6.88725 -14.77074,-9.92077 -25.27511,-18.70789 -39.94418,-33.41411 l -13.73048,-13.76526 -5.7692,4.92305 c -7.96551,6.79723 -24.89638,16.15741 -36.26983,20.05165 -5.225,1.78903 -9.66901,3.38451 -9.87557,3.5455 -0.54116,0.42179 5.18426,5.18838 12.26386,10.21005 11.5084,8.16309 27.59894,15.31562 42.11213,18.71959 7.14961,1.6769 22.99972,3.29703 27.49958,2.8109 1.375,-0.14855 5.65,-0.51159 9.5,-0.80677 z m -83.89347,-51.12986 c 4.88452,-1.96917 11.58376,-5.19398 14.88721,-7.16625 C 495.85955,440.26806 507,432.01119 507,430.80546 c 0,-0.55287 -2.45068,-5.34777 -5.44596,-10.65534 -9.55865,-16.93774 -14.76704,-32.53632 -16.53423,-49.51831 -0.50757,-4.8775 -1.09947,-9.0448 -1.31534,-9.26067 -0.65275,-0.65275 -8.49357,2.39917 -14.80149,5.76125 -10.08819,5.37696 -18.19961,13.68748 -23.29583,23.86767 -2.44035,4.87484 -4.9788,11.47317 -5.64099,14.66296 -1.69393,8.15959 -0.73456,25.32443 1.81248,32.42875 2.69675,7.52191 7.10905,16.41056 9.32897,18.79336 1.7004,1.82516 2.14773,1.85833 7.21538,0.53498 2.97143,-0.77595 9.39902,-3.02195 14.28354,-4.99112 z m 52.11157,-42.00638 c 5.19611,-7.29583 18.18076,-32.70566 21.04111,-41.17561 1.9756,-5.85008 2.00028,-6.30535 0.38855,-7.16792 -5.15686,-2.75987 -36.55012,-6.19885 -42.63827,-4.67082 l -2.75957,0.69261 0.71517,9.14199 c 0.39334,5.0281 1.53097,12.33176 2.52806,16.23036 3.72202,14.55295 12.72704,34.1131 15.31383,33.26373 0.65616,-0.21545 3.09116,-3.0569 5.41112,-6.31434 z M 557.68351,337 c 8.3863,-23.43437 17.23583,-43.36321 24.92527,-56.13081 4.55009,-7.55502 4.44271,-8.13535 -1.35878,-7.34295 -32.16061,4.39267 -58.67599,22.20359 -71.61989,48.10851 C 506.62719,327.64457 503,337.7911 503,340.1815 c 0,0.45018 3.39274,0.8185 7.53941,0.8185 10.21499,0 24.37902,1.6635 33.46059,3.92979 4.125,1.02939 8.12636,1.8038 8.89191,1.72091 0.80152,-0.0868 2.83389,-4.18013 4.7916,-9.6507 z m 171.43127,-40.22499 c 9.98675,-19.57565 -2.11133,-45.8437 -25.2179,-54.75453 -10.97175,-4.23116 -20.76493,-5.43671 -33.18686,-4.08535 -11.13415,1.21127 -25.27238,5.52341 -33.45018,10.20228 C 630.8961,251.77837 622,258.68409 622,259.98307 c 0,0.51511 2.8125,1.80981 6.25,2.8771 18.18958,5.64759 37.65343,15.31078 58.70297,29.14418 13.77215,9.05083 14.30973,9.30243 17.44948,8.16709 4.52989,-1.63804 10.31411,-1.37239 15.59755,0.71632 5.20711,2.05854 6.19348,1.61347 9.11478,-4.11275 z M 843,530.32326 c -26.63757,-4.30865 -47.98233,-17.84701 -56.0038,-35.5216 -2.63701,-5.81042 -2.49691,-7.4548 0.92688,-10.87858 5.18929,-5.1893 9.86693,-3.50067 14.87268,5.36903 5.86701,10.39577 18.8678,19.54088 32.78949,23.06501 9.52111,2.41018 18.2258,2.90543 30.13699,1.71465 30.4167,-3.04082 62.32615,-16.48719 95.45831,-40.22531 15.4487,-11.06849 34.6634,-28.4969 42.47045,-38.52221 l 2.4731,-3.17576 -5.3737,-7.32424 C 990.05599,410.24784 980.72383,393.11212 974.16064,376 c -2.08328,-5.43171 -3.41597,-7.5814 -4.83257,-7.79517 -2.9253,-0.44145 -25.97277,7.95595 -61.82807,22.52717 -17.6,7.15246 -32.75461,13.26202 -33.67692,13.57681 -0.9223,0.31478 -2.53474,2.51157 -3.5832,4.88176 -5.33789,12.06704 -19.82868,16.2363 -30.23386,8.69883 -12.50566,-9.05905 -9.72116,-27.67683 4.8932,-32.71707 5.60611,-1.93344 10.38769,-1.39521 16.74838,1.88525 l 5.92853,3.05758 15.96194,-6.66798 c 16.5632,-6.91915 30.83485,-12.77346 47.96193,-19.67425 5.5,-2.21605 15.07774,-5.71176 21.28387,-7.76825 6.20613,-2.0565 11.51742,-3.97264 11.80288,-4.25809 0.28545,-0.28546 -1.12927,-4.73272 -3.14383,-9.8828 -2.01455,-5.15008 -5.58076,-14.32175 -7.92491,-20.38147 -7.20645,-18.62904 -18.70146,-39.54823 -24.96495,-45.43248 l -2.5251,-2.3722 -9.26398,2.27142 C 898.44841,280.43982 877.2725,290.66471 857,304.80638 l -12.5,8.71973 -0.61503,5.02561 c -0.76781,6.27398 -2.87074,10.41543 -7.09905,13.9807 -6.74924,5.69089 -14.05935,6.91751 -21.28592,3.57172 -7.29583,-3.37786 -11.46796,-9.49923 -11.53161,-16.91924 -0.0281,-3.27851 -0.52397,-3.98367 -4.49607,-6.39398 -7.47491,-4.53584 -12.7534,-14.94259 -14.12613,-27.85019 -1.52804,-14.36794 5.63103,-32.86436 17.1006,-44.18167 7.83862,-7.73458 14.94084,-12.07718 26.292,-16.07607 8.05631,-2.83814 10.0083,-3.11579 24.26121,-3.4509 14.01931,-0.32961 16.43744,-0.12325 25.31318,2.16017 18.6925,4.80894 36.03902,14.08019 50.25087,26.85774 l 7.50769,6.75 h 9.85366 c 27.74383,0 54.4115,10.75787 74.518,30.061 14.3049,13.73322 23.6785,29.48088 27.7497,46.61935 l 2.153,9.06351 5.577,1.73539 c 25.7955,8.02688 43.1781,22.21003 52.6938,42.99516 1.3104,2.86217 3.3281,9.66382 4.4839,15.11477 4.6607,21.98145 -0.7992,46.62179 -14.6235,65.99479 -10.4158,14.59642 -28.4128,29.79057 -45.4773,38.39453 -34.4204,17.35487 -75.84903,19.41409 -108.66575,5.40126 l -8.16575,-3.4868 -7.83425,3.91824 c -16.13117,8.06788 -39.73204,15.18222 -56.88266,17.14693 -8.69682,0.99628 -23.38431,1.18476 -28.45159,0.36513 z m 161.5,-26.35803 c 10.7081,-1.52232 22.9856,-4.82092 31.4866,-8.45949 9.4784,-4.05691 24.1182,-13.02358 30.0642,-18.41377 5.1711,-4.68787 5.0583,-4.87109 -5.0508,-8.20487 -9.6071,-3.16824 -26.4818,-12.06798 -34.8159,-18.36202 -4.0238,-3.03879 -7.7024,-5.52508 -8.1746,-5.52508 -0.4723,0 -4.3575,3.84353 -8.6338,8.54118 -12.67345,13.92211 -28.07366,26.95912 -49.41271,41.83019 -2.26614,1.57926 -3.74334,3.24828 -3.28268,3.70894 1.16818,1.16818 12.13003,3.88537 19.58867,4.85557 8.95845,1.16529 20.15884,1.17693 28.23102,0.0294 z M 1085.6585,454.75 c 3.1751,-5.02829 7.0734,-14.27007 8.9637,-21.25 1.8342,-6.77286 1.7506,-23.64865 -0.1534,-30.95845 -3.0035,-11.53119 -11.1008,-23.55579 -20.8328,-30.93692 C 1068.6572,367.82851 1055.1514,361 1052.6615,361 c -0.8294,0 -1.6306,3.79467 -2.4699,11.69913 -1.8079,17.02581 -8.2293,34.77864 -19.4081,53.65712 l -2.2835,3.85625 4.9054,4.44685 c 6.1647,5.58839 19.5723,13.55222 29.4918,17.51738 7.5172,3.00491 17.9123,6.63847 19.3403,6.76034 0.4056,0.0346 1.945,-1.84957 3.421,-4.18707 z m -64.4445,-45.30657 c 7.6971,-14.38978 12.7815,-32.53335 12.7846,-45.62147 v -5.67805 l -5.3183,-0.66448 c -7.887,-0.98541 -35.95373,2.21656 -39.69454,4.5285 -2.15141,1.32965 0.95391,9.88701 10.04143,27.67124 8.28481,16.21337 15.60141,27.59358 17.38621,27.04265 0.5969,-0.18423 2.7565,-3.45951 4.7992,-7.27839 z M 994,343.97951 c 5.225,-1.09681 15.9585,-2.28794 23.8522,-2.64695 l 14.3522,-0.65273 -0.6363,-3.97926 c -0.7676,-4.80045 -5.9639,-16.28882 -10.7556,-23.77944 -13.7858,-21.55078 -39.89343,-37.14859 -66.28516,-39.60163 l -6.97266,-0.64809 1.77462,2.70841 c 8.29983,12.66715 16.31425,29.1531 23.14894,47.61823 8.32549,22.4928 8.55605,23.00341 10.38034,22.98881 0.90278,-0.007 5.91642,-0.91053 11.14142,-2.00735 z M 815.5,301 c 4.62541,-2.35817 8.75128,-2.52827 14.25184,-0.58756 l 4.00328,1.41244 16.51319,-10.87959 C 868.70448,278.79876 887.72103,268.91156 902,264.04865 c 5.225,-1.77945 9.88192,-3.59777 10.34872,-4.04072 1.24497,-1.18138 -7.8668,-8.01754 -16.949,-12.71609 -12.92987,-6.6891 -23.09138,-9.49042 -36.43449,-10.04424 -14.08865,-0.58476 -20.46508,0.61695 -30.84769,5.81361 -9.62679,4.81836 -17.0492,12.02326 -21.31692,20.69222 -5.48844,11.14861 -4.88393,28.78576 1.25408,36.58899 2.50405,3.18338 2.49301,3.1824 7.4453,0.65758 z"
         id="path1224" />
      <path
         style="fill:#9cb1cb"
         d="m 683,684.06487 c -5.3256,-1.62584 -10.99672,-5.19401 -13.52637,-8.51055 C 664.85664,669.50113 664,664.47641 664,643.44806 c 0,-16.61648 0.21527,-19.31669 1.58179,-19.84107 2.7235,-1.04511 9.96277,-0.66243 11.21821,0.59301 0.84605,0.84605 1.2,6.60714 1.2,19.53212 0,21.80593 0.66059,24.30436 7.21236,27.27796 8.19754,3.72055 16.74198,1.58399 20.03609,-5.01008 1.47577,-2.95417 1.74868,-6.39291 1.75,-22.05 10e-4,-13.09261 0.35459,-18.90304 1.20155,-19.75 1.71866,-1.71866 10.28183,-1.52928 11.767,0.26024 0.88722,1.06904 1.12095,6.89581 0.87244,21.75 -0.32279,19.29465 -0.46205,20.53462 -2.83944,25.2824 -4.56906,9.12467 -13.54753,13.62121 -26.79922,13.42141 -3.13543,-0.0473 -6.82578,-0.42941 -8.20078,-0.84918 z M 538.47405,682.75 c -0.25476,-0.6875 -0.57813,-11.375 -0.71862,-23.75 L 537.5,636.5 531,636.25409 c -3.575,-0.13526 -7.9625,-0.49315 -9.75,-0.79532 -3.19302,-0.53976 -3.25,-0.64316 -3.25,-5.89709 0,-3.95391 0.41227,-5.5059 1.58179,-5.95469 2.61416,-1.00315 50.24508,-0.69613 50.878,0.32794 0.91762,1.48476 1.05299,9.88549 0.17348,10.76637 -0.4386,0.43929 -4.81052,0.95597 -9.71536,1.1482 L 552,636.199 v 22.7005 c 0,16.32261 -0.33715,23.03765 -1.2,23.9005 -1.62169,1.62169 -11.72169,1.58072 -12.32595,-0.05 z m 49.19262,0.58333 C 587.3,682.96667 587,669.78167 587,654.03333 c 0,-20.93703 0.32255,-28.95588 1.2,-29.83333 1.55581,-1.55581 10.04419,-1.55581 11.6,0 0.79174,0.79174 1.2,5.04444 1.2,12.5 V 648 h 14 14 v -11.3 c 0,-7.45556 0.40826,-11.70826 1.2,-12.5 1.34478,-1.34478 9.61135,-1.6065 11.56539,-0.36616 0.98371,0.62442 1.20632,7.35493 1,30.23469 L 642.5,683.5 l -5.33118,0.30507 C 629.42233,684.24837 629,683.60587 629,671.37756 V 661 h -14 -14 v 10.3 c 0,6.67778 -0.42201,10.72201 -1.2,11.5 -1.25761,1.25761 -10.98163,1.68504 -12.13333,0.53333 z m 154.39425,-1.2195 c -1.42268,-2.65829 -1.44602,-54.52575 -0.0257,-57.17957 0.80445,-1.50312 2.11345,-1.93426 5.87264,-1.93426 5.67126,0 5.62982,-0.0392 24.05798,22.77415 6.3062,7.80683 11.80764,13.85241 12.22543,13.43462 0.41779,-0.41779 0.88317,-8.62317 1.03419,-18.23419 L 785.5,623.5 l 3.90468,-0.31959 c 2.14757,-0.17577 4.96675,-0.053 6.26484,0.27278 l 2.36017,0.59237 -0.26484,29.72722 L 797.5,683.5 l -5.64246,0.2967 -5.64246,0.29669 -9.86427,-11.79669 c -5.42535,-6.48819 -12.06512,-14.6092 -14.75506,-18.0467 -2.68993,-3.4375 -5.26402,-6.25 -5.72019,-6.25 -0.45618,0 -0.95229,7.9875 -1.10249,17.75 L 754.5,683.5 l -5.68908,0.29809 c -4.82635,0.25288 -5.84997,-0.003 -6.75,-1.68426 z m 78.33417,0.71711 c -0.45264,-0.73202 -1.00527,-13.73274 -1.22805,-28.8905 -0.37441,-25.47327 -0.26945,-27.69517 1.38639,-29.35102 1.60807,-1.60806 3.38616,-1.74798 17.36902,-1.36677 13.21057,0.36016 16.48924,0.7753 21.57755,2.73212 12.00417,4.61645 18.91049,15.2721 18.67961,28.82047 -0.19827,11.63558 -6.30763,20.91794 -17.17961,26.10214 -5.15764,2.45937 -6.56698,2.64322 -22.64096,2.95356 -13.46765,0.26002 -17.31733,0.0457 -17.96395,-1 z m 36.38677,-14.06788 c 5.21753,-3.4528 7.65633,-9.46548 7.0084,-17.27866 -0.48929,-5.90024 -2.41153,-9.3639 -7.17172,-12.92261 C 854.25529,636.79502 852.40395,636.5 843.68033,636.5 H 833.5 l -0.29638,14.5 c -0.16301,7.975 -0.0203,16.01485 0.31714,17.86634 l 0.61352,3.36635 9.31815,-0.40755 c 8.01628,-0.3506 9.87858,-0.77842 13.32943,-3.06208 z m 39.8729,14.48694 c -0.84157,-1.36245 -1.17186,-57.72359 -0.34574,-59 0.60562,-0.93573 6.179,-1.25 22.16821,-1.25 11.74756,0 22.071,0.27314 22.94098,0.60699 1.96764,0.75505 2.23986,9.84906 0.33179,11.08399 C 941.0625,635.13594 933.525,635.725 925,636 l -15.5,0.5 v 5.5 5.5 l 14.5,0.5 14.5,0.5 0.30115,5.21811 c 0.3664,6.34864 0.76602,6.19316 -16.80115,6.53713 L 909.5,660.5 v 5.5 5.5 l 15.92923,0.2763 c 9.67115,0.16776 16.44812,0.70694 17.25,1.37245 0.72642,0.60288 1.32077,2.57923 1.32077,4.39191 0,6.76129 1.12415,6.45934 -24.04797,6.45934 -12.5587,0 -23.04247,-0.3375 -23.29727,-0.75 z m 66.01191,0.0833 C 962.3,682.96667 962,669.51481 962,653.44032 c 0,-25.72811 0.18933,-29.299 1.58179,-29.83333 0.86998,-0.33385 7.76331,-0.60699 15.3185,-0.60699 20.3369,0 29.03721,3.24659 33.18661,12.38391 3.7839,8.3325 1.9765,17.68535 -4.6652,24.14032 -2.4319,2.36356 -4.4217,4.63474 -4.4217,5.04707 0,0.41233 2.7266,4.50245 6.059,9.08917 3.3325,4.58671 5.7809,8.78949 5.441,9.3395 -0.3399,0.55002 -3.7226,1.00003 -7.5171,1.00003 h -6.8991 L 994.29188,675.54005 988.5,667.0801 982.25,667.04 976,667 v 7.3 c 0,4.34444 -0.48584,7.78584 -1.2,8.5 -1.25761,1.25761 -10.98163,1.68504 -12.13333,0.53333 z m 32.20522,-30.43851 c 3.86423,-1.34708 5.12811,-3.5135 5.12811,-8.79012 0,-2.8201 -0.63786,-4.62104 -2.12857,-6.00985 -2.33762,-2.1778 -9.65803,-3.44548 -16.87143,-2.92162 l -4.5,0.3268 -0.28753,9.25 -0.28752,9.25 h 7.8883 c 4.33857,0 9.31495,-0.49733 11.05864,-1.10518 z M 657,528.97621 c -5.225,-1.00949 -12.75841,-2.76755 -16.74091,-3.90681 C 631.88231,522.67309 610.02536,514.14967 602,510.14975 l -5.5,-2.74126 -7.38112,3.38662 C 559.14449,524.548 518.98263,522.41301 484.5,505.23359 c -31.25064,-15.56923 -50.64698,-36.86702 -59.147,-64.94527 -3.65025,-12.05791 -3.86296,-29.83691 -0.49928,-41.73173 6.98663,-24.70649 24.17273,-41.98191 50.9063,-51.17085 l 9.61183,-3.30381 1.68743,-8.3348 c 3.52357,-17.40418 13.2948,-34.00412 28.83282,-48.9829 19.02458,-18.33985 42.25895,-27.95805 71.1079,-29.43612 l 12.5,-0.64044 6,-5.43831 c 7.50222,-6.79991 23.20766,-17.34564 30.89619,-20.74587 43.55488,-19.26204 90.6962,-7.64212 107.49481,26.49651 7.6686,15.58437 7.98646,32.0227 0.88789,45.91868 -2.46899,4.83324 -4.51058,7.2632 -8.26541,9.83775 -3.82912,2.62548 -5.01886,4.06227 -5.12589,6.19024 C 730.86298,329.37797 721.72288,338 711.1894,338 c -4.99998,0 -11.73186,-3.58937 -15.52765,-8.27919 -2.33984,-2.89095 -3.09441,-4.96197 -3.44711,-9.46097 -0.24834,-3.16791 -1.11274,-6.51394 -1.92089,-7.43561 -1.25835,-1.4351 -11.70251,-8.46648 -24.29375,-16.3554 -13.08678,-8.19939 -32.74655,-16.81977 -45,-19.73151 -11.85833,-2.81784 -12.55868,-2.83854 -14.78633,-0.43693 -2.89415,3.12017 -11.29345,16.91326 -15.99216,26.26189 -6.08313,12.1031 -20.95179,50.08985 -19.96622,51.01013 0.13459,0.12568 4.23925,1.44293 9.12147,2.92723 4.88222,1.4843 19.50722,6.97415 32.5,12.19968 59.98874,24.12668 56.18683,22.74379 58.4996,21.27835 8.07611,-5.11725 15.31809,-5.80298 22.41287,-2.12223 10.11014,5.2451 12.1424,19.08588 3.94193,26.84666 -4.59654,4.35008 -6.8954,5.2979 -12.84969,5.2979 -9.35216,0 -16.03018,-4.64329 -18.74992,-13.03699 -0.91398,-2.82076 -2.00519,-3.86749 -5.3888,-5.16915 -2.33351,-0.8977 -18.19275,-7.31434 -35.24275,-14.25922 -17.05,-6.94487 -37.32258,-14.81202 -45.05019,-17.48256 l -14.05019,-4.85552 -1.82441,5.15172 c -7.04208,19.88519 -17.53762,39.92507 -28.00613,53.47407 -3.06299,3.96432 -5.56908,7.85031 -5.56908,8.63554 0,0.78523 5.7375,7.22817 12.75,14.31765 29.48193,29.80558 70.53294,54.49568 105.88346,63.68355 39.15501,10.17669 70.92756,2.24436 83.89605,-20.94547 4.35677,-7.79064 7.78746,-9.68663 13.01594,-7.19334 6.054,2.88696 5.86035,8.2634 -0.66,18.32357 -13.2898,20.50467 -34.80295,30.37452 -65.88545,30.22708 -7.76913,-0.0369 -16.09546,-0.75395 -22,-1.89472 z m -87.84287,-25.89926 c 14.75131,-3.96052 14.5466,-3.1252 2.70574,-11.04107 -15.80493,-10.56593 -26.04755,-19.08182 -41.09336,-34.16574 l -13.73048,-13.76526 -5.7692,4.92305 C 500.60019,458.13268 472.62086,472 464.92032,472 c -3.1812,0 -2.23985,1.38505 4.74612,6.98326 15.32363,12.2796 32.18396,20.14051 52.83356,24.63297 9.50896,2.06874 12.89768,2.33372 25,1.95484 9.80113,-0.30684 16.29652,-1.05487 21.65713,-2.49412 z m -115.39356,-43.9758 c 0.95504,-0.49437 5.56143,-2.12213 10.23643,-3.61725 14.17533,-4.53342 29.77364,-12.95895 40.5,-21.87633 l 3,-2.49406 -2.38262,-4.30675 c -14.11646,-25.5165 -19.6446,-41.84828 -20.33531,-60.07663 -0.28137,-7.42552 -0.28829,-7.44219 -2.78207,-6.69839 -17.39499,5.18821 -30.21157,15.48375 -37.92894,30.46826 -8.54103,16.58379 -9.20932,33.83366 -2.03183,52.44551 2.75588,7.14623 8.24745,17.05449 9.45231,17.05449 0.29458,0 1.31699,-0.40448 2.27203,-0.89885 z m 70.95882,-48.67854 c 5.03786,-7.06643 18.28778,-33.18575 21.63056,-42.63993 l 2.3751,-6.71733 -3.11403,-1.00504 C 538.61168,357.80034 524.0292,356 512.72606,356 h -12.01197 l 0.69054,10.02607 c 0.37979,5.51434 1.52548,13.2907 2.54598,17.2808 3.76142,14.70704 12.75445,34.28442 15.35637,33.43008 0.65616,-0.21545 3.0931,-3.0569 5.41541,-6.31434 z m 33.17641,-73.95486 c 8.5779,-23.91277 16.88277,-42.5986 24.71063,-55.59856 1.86481,-3.09695 3.39057,-6.16202 3.39057,-6.81127 0,-1.41677 -5.58243,-0.78235 -17.80135,2.02303 -29.65701,6.80905 -56.15791,31.2219 -63.82396,58.79515 -2.18879,7.87267 -1.92248,8.08609 10.12531,8.11448 9.40101,0.0222 24.45495,2.01085 33,4.35945 2.75,0.75583 5.32951,1.08427 5.73225,0.72986 0.40273,-0.35441 2.50268,-5.57987 4.66655,-11.61214 z m 171.21598,-39.69274 c 9.98675,-19.57565 -2.11133,-45.8437 -25.2179,-54.75453 -10.97175,-4.23116 -20.76493,-5.43671 -33.18686,-4.08535 -11.13415,1.21127 -25.27238,5.52341 -33.45018,10.20228 C 630.8961,251.77837 622,258.68409 622,259.98307 c 0,0.51511 2.8125,1.80981 6.25,2.8771 18.18958,5.64759 37.65343,15.31078 58.70297,29.14418 13.77215,9.05083 14.30973,9.30243 17.44948,8.16709 4.52989,-1.63804 10.31411,-1.37239 15.59755,0.71632 5.20711,2.05854 6.19348,1.61347 9.11478,-4.11275 z M 843,530.32326 c -26.63757,-4.30865 -47.98233,-17.84701 -56.0038,-35.5216 -2.63701,-5.81042 -2.49691,-7.4548 0.92688,-10.87858 5.18929,-5.1893 9.86693,-3.50067 14.87268,5.36903 5.86701,10.39577 18.8678,19.54088 32.78949,23.06501 9.52111,2.41018 18.2258,2.90543 30.13699,1.71465 30.4167,-3.04082 62.32615,-16.48719 95.45831,-40.22531 15.4487,-11.06849 34.6634,-28.4969 42.47045,-38.52221 l 2.4731,-3.17576 -5.363,-7.32424 C 989.50102,409.4462 979.76375,391.35993 973.5,374.18864 c -2.97611,-8.15864 -3.02389,-8.21913 -6,-7.59585 -4.47903,0.93802 -25.78293,8.73549 -45,16.47051 -55.06089,22.16241 -50.7899,20.17255 -53.00742,24.69626 -4.16984,8.50641 -9.75138,12.25309 -18.21046,12.22399 -5.85547,-0.0201 -11.80488,-3.15164 -15.00255,-7.89666 -2.78613,-4.13434 -3.09515,-12.56592 -0.64944,-17.71987 3.8115,-8.03215 16.33865,-10.88376 25.77385,-5.86702 2.58601,1.375 5.40587,2.5 6.26635,2.5 0.86047,0 9.27416,-3.20859 18.69708,-7.1302 31.62623,-13.16214 58.0557,-23.58754 68.13259,-26.87565 5.5,-1.79467 10.3022,-3.43227 10.67156,-3.63913 0.36936,-0.20685 -0.4416,-3.18386 -1.80213,-6.61556 C 962.0089,343.30776 958.38114,333.975 955.30774,326 946.66781,303.58071 935.33333,282.41958 928.55306,276.04984 l -2.5251,-2.3722 -9.26398,2.27142 C 898.44841,280.43982 877.2725,290.66471 857,304.80638 l -12.5,8.71973 -0.61503,5.02561 c -0.76781,6.27398 -2.87074,10.41543 -7.09905,13.9807 -6.74924,5.69089 -14.05935,6.91751 -21.28592,3.57172 -7.29583,-3.37786 -11.46796,-9.49923 -11.53161,-16.91924 -0.0281,-3.27851 -0.52397,-3.98367 -4.49607,-6.39398 -7.47491,-4.53584 -12.7534,-14.94259 -14.12613,-27.85019 -1.52804,-14.36794 5.63103,-32.86436 17.1006,-44.18167 7.83862,-7.73458 14.94084,-12.07718 26.292,-16.07607 8.05631,-2.83814 10.0083,-3.11579 24.26121,-3.4509 14.01931,-0.32961 16.43744,-0.12325 25.31318,2.16017 18.6925,4.80894 36.03902,14.08019 50.25087,26.85774 l 7.50769,6.75 h 9.85366 c 27.74383,0 54.4115,10.75787 74.518,30.061 9.4188,9.04238 16.9434,19.32194 22.0626,30.14021 3.2912,6.95505 7.4459,21.01664 7.4786,25.31128 0.012,1.6243 1.3174,2.38312 6.7654,3.93395 3.7125,1.0568 11.1988,4.14255 16.6363,6.85721 19.0317,9.50169 32.0604,25.36997 37.2215,45.33378 2.2667,8.76798 2.4958,11.24988 2.0649,22.36257 -0.5289,13.63745 -2.0907,20.76798 -6.8994,31.5 -13.7451,30.67616 -44.6735,54.22575 -84.3046,64.19136 -10.0907,2.53739 -12.4896,2.7558 -29.9687,2.72847 -21.32155,-0.0334 -29.50807,-1.46372 -45.35739,-7.92499 l -8.35738,-3.40705 -8.64262,4.32036 c -16.95014,8.47322 -40.2016,15.54646 -57.69102,17.54998 -8.69682,0.99628 -23.38431,1.18476 -28.45159,0.36513 z m 167.6146,-25.87121 c 17.0316,-2.97005 32.5134,-9.37272 48.341,-19.99191 C 1067.1663,478.9514 1074.2332,472 1071.6229,472 c -6.9207,0 -33.8389,-12.72404 -45.4388,-21.47862 -4.0238,-3.03676 -7.7024,-5.52138 -8.1746,-5.52138 -0.4723,0 -4.3575,3.84353 -8.6338,8.54118 -12.84169,14.10693 -30.24724,28.79787 -49.73891,41.98149 l -5.86322,3.96571 4.22064,1.84049 c 10.3526,4.51446 35.9351,6.03286 52.62039,3.12318 z m 79.3558,-54.44901 c 6.0865,-12.18035 7.517,-18.42359 7.4474,-32.50304 -0.057,-11.58899 -0.3511,-13.7359 -2.7075,-19.78007 -6.2121,-15.93392 -17.0513,-27.31068 -33.0722,-34.71235 -4.7709,-2.20417 -9.1162,-4.00758 -9.6562,-4.00758 -0.5401,0 -0.9846,2.1375 -0.9878,4.75 -0.022,18.06968 -7.4348,41.03087 -20.2106,62.60625 l -2.2835,3.85625 4.9232,4.46298 c 8.9523,8.11539 23.6917,15.76124 44.5768,23.12354 l 5.5,1.93883 1.8603,-2.11589 c 1.0231,-1.16374 3.0977,-4.59225 4.6101,-7.61892 z m -68.7564,-40.55961 c 7.9705,-14.90088 12.7818,-32.52379 12.7846,-46.82729 v -6.88387 l -15.25,0.56697 c -14.0041,0.52065 -29.12077,2.76905 -31.03722,4.61637 -3.07035,2.95961 24.73872,57.02959 28.70202,55.80621 0.5969,-0.18423 2.7565,-3.45951 4.7992,-7.27839 z M 997.57359,344.98742 C 1004.0299,343.88366 1013.7868,343 1019.5176,343 c 5.6753,0 10.9707,-0.25015 11.7675,-0.55589 3.0725,-1.17905 -2.6365,-17.27323 -10.4726,-29.52298 -13.7858,-21.55078 -39.89343,-37.14859 -66.28516,-39.60163 l -6.97266,-0.64809 1.77462,2.70841 c 8.67029,13.23254 16.27787,29.12985 24.53186,51.26345 3.92636,10.52879 7.13884,19.69008 7.13884,20.35841 0,0.79342 0.85867,0.99962 2.47422,0.59415 1.36081,-0.34155 7.70553,-1.51533 14.09937,-2.60841 z M 815.5,301 c 4.62541,-2.35817 8.75128,-2.52827 14.25184,-0.58756 l 4.00328,1.41244 16.51319,-10.87959 C 868.70448,278.79876 887.72103,268.91156 902,264.04865 c 5.225,-1.77945 9.88192,-3.59777 10.34872,-4.04072 1.24497,-1.18138 -7.8668,-8.01754 -16.949,-12.71609 -12.92987,-6.6891 -23.09138,-9.49042 -36.43449,-10.04424 -14.08865,-0.58476 -20.46508,0.61695 -30.84769,5.81361 -9.62679,4.81836 -17.0492,12.02326 -21.31692,20.69222 -5.48844,11.14861 -4.88393,28.78576 1.25408,36.58899 2.50405,3.18338 2.49301,3.1824 7.4453,0.65758 z"
         id="path1222" />
      <path
         style="fill:#f5cc50"
         d="m 683.7175,682.97196 c -8.82504,-2.2263 -14.67552,-7.72414 -17.17457,-16.13937 -2.27496,-7.66059 -2.24395,-41.34961 0.0389,-42.2256 2.74013,-1.05149 8.12958,-0.65969 9.2342,0.67129 0.64314,0.77494 1.18357,9.01334 1.37245,20.92195 0.30713,19.3644 0.3471,19.68215 2.81156,22.3506 7.49284,8.11303 21.8932,7.01998 26.39116,-2.00321 1.6665,-3.34311 1.869,-5.90356 1.7046,-21.55388 C 707.88735,625.15277 708.23621,624 714.44898,624 c 5.60709,0 5.83361,0.93967 5.36256,22.24539 -0.37059,16.76213 -0.69274,19.83713 -2.48862,23.75461 -2.46066,5.36762 -6.45321,9.32174 -11.57092,11.45954 -4.65082,1.94276 -16.97534,2.7887 -22.0345,1.51242 z M 539.66667,682.33333 C 539.3,681.96667 539,671.48167 539,659.03333 c 0,-16.27037 -0.33736,-22.97069 -1.2,-23.83333 -0.75152,-0.75152 -4.48889,-1.2 -10,-1.2 H 519 v -4.39301 c 0,-3.08336 0.47156,-4.57397 1.58179,-5 C 521.45177,624.27314 532.21497,624 544.5,624 c 12.28503,0 23.04823,0.27314 23.91821,0.60699 1.10736,0.42493 1.58179,1.91333 1.58179,4.96247 v 4.35549 l -9.25,0.28752 -9.25,0.28753 -0.54566,24 c -0.30012,13.2 -0.63762,24.1125 -0.75,24.25 -0.46624,0.57042 -9.92457,0.19643 -10.53767,-0.41667 z m 49,0 C 588.3,681.96667 588,669.23167 588,654.03333 c 0,-20.15926 0.32457,-27.9579 1.2,-28.83333 1.55247,-1.55247 8.04753,-1.55247 9.6,0 0.79039,0.79039 1.2,5.02067 1.2,12.39301 0,9.28407 0.26977,11.29653 1.58179,11.8 2.54671,0.97727 25.77554,0.66657 27.40975,-0.36662 1.14243,-0.72227 1.57678,-3.62807 1.85571,-12.41465 l 0.36416,-11.47166 3.92888,-0.66378 c 7.04185,-1.18971 6.9236,-1.72357 6.62505,29.90888 L 641.5,682.5 l -4.38586,0.31414 c -2.41223,0.17277 -4.88723,-0.18713 -5.5,-0.79978 -0.65304,-0.65291 -1.16469,-5.2783 -1.23627,-11.1761 -0.0893,-7.35311 -0.49311,-10.29714 -1.5,-10.93491 -1.55143,-0.98266 -24.84846,-1.2356 -27.29608,-0.29636 -1.29923,0.49856 -1.58179,2.4278 -1.58179,10.8 0,6.59456 -0.42364,10.61665 -1.2,11.39301 -1.2649,1.2649 -8.99493,1.67174 -10.13333,0.53333 z m 155.0461,0.0461 C 743.32075,681.98741 743,668.92524 743,653.35239 V 625.0381 l 2.56741,-0.64438 c 5.51078,-1.38311 7.81484,0.52865 23.02699,19.10628 8.10654,9.9 15.22661,18 15.82238,18 0.72785,0 1.17251,-5.95501 1.3554,-18.15152 0.19851,-13.23908 0.60447,-18.26861 1.5,-18.58416 0.6753,-0.23794 3.14714,-0.23434 5.49298,0.008 l 4.26516,0.44063 -0.26516,28.64352 L 796.5,682.5 l -4.3787,0.31379 c -5.4832,0.39293 -5.92857,-0.016 -22.82936,-20.9593 -7.03557,-8.71843 -13.34429,-15.85232 -14.01938,-15.85309 -0.91519,-10e-4 -1.29678,4.64125 -1.5,18.2486 L 753.5,682.5 l -4.53723,0.2961 c -2.49548,0.16286 -4.85798,-0.0246 -5.25,-0.41667 z m 78.03723,0.0468 C 821.3375,682.00845 821,668.98077 821,653.47579 v -28.19088 l 6.14669,-0.64245 c 31.51545,-3.29402 49.63397,6.9511 49.80942,28.16472 0.10449,12.63447 -4.89725,21.06882 -15.62771,26.35277 -6.70399,3.30121 -6.96917,3.34404 -22.80563,3.6829 -8.81252,0.18856 -16.36027,10e-4 -16.77277,-0.41667 z m 33.99316,-11.98548 c 6.40404,-3.19127 9.3997,-8.56205 9.3997,-16.85232 C 865.14286,640.58089 856.79592,634 840.29777,634 831.91011,634 832,633.79467 832,652.9534 c 0,9.28566 0.27314,17.59483 0.60699,18.46481 0.48911,1.2746 2.29592,1.58179 9.30365,1.58179 7.32569,0 9.50631,-0.40346 13.83252,-2.5593 z m 41.92351,11.89263 C 897.3,681.96667 897,668.96481 897,653.44032 c 0,-24.81624 0.1911,-28.29967 1.58179,-28.83333 C 899.45177,624.27314 909.07167,624 919.95934,624 c 21.89891,0 22.43791,0.1525 21.85889,6.18468 L 941.5,633.5 l -15.43009,0.27702 c -9.61288,0.17258 -15.94414,0.70364 -16.7936,1.40863 -0.94531,0.78454 -1.27346,2.99987 -1.06991,7.22298 L 908.5,648.5 923,649 l 14.5,0.5 0.30588,4.21692 c 0.37676,5.19403 0.35145,5.20237 -16.80588,5.53832 L 908.5,659.5 v 6.5 6.5 l 16.46067,0.5 16.46067,0.5 0.69603,3.41135 C 943.388,683.13891 943.89124,683 920.05968,683 c -11.94949,0 -22.02635,-0.3 -22.39301,-0.66667 z m 66.0461,0.0461 C 963.32075,681.98741 963,668.92524 963,653.35239 V 625.0381 l 2.56991,-0.645 c 4.80862,-1.20689 29.63486,0.25602 34.42636,2.0286 14.58323,5.39495 17.49143,21.75667 5.82933,32.79583 -3.2413,3.06814 -4.7179,5.16593 -4.2232,6 0.4182,0.70536 3.1538,4.54062 6.079,8.5228 2.9252,3.98219 5.3186,7.71616 5.3186,8.29772 0,0.66204 -2.3337,0.94607 -6.2417,0.75967 l -6.2418,-0.29772 -4.76786,-7 c -6.30003,-9.24947 -7.9279,-10.5 -13.66829,-10.5 -6.98358,0 -7.96807,1.18629 -8.29886,10 l -0.28149,7.5 -4.53723,0.2961 c -2.49548,0.16286 -4.85798,-0.0246 -5.25,-0.41667 z M 992,654.91458 c 5.49376,-1.26543 8.7693,-4.16812 9.58,-8.48945 0.8313,-4.4311 -1.3192,-8.5438 -5.58115,-10.67358 -4.18819,-2.09292 -18.86819,-2.48221 -20.79885,-0.55155 -0.75048,0.75048 -1.2,4.47785 -1.2,9.95031 0,7.27866 0.29432,8.92173 1.75,9.76959 2.26343,1.31833 10.51521,1.31563 16.25,-0.005 z M 668,529.39756 c -19.77214,-2.38489 -36.29969,-7.3392 -60.40662,-18.10752 l -9.90661,-4.42518 -8.03934,3.67488 c -30.67417,14.02154 -70.37404,12.01812 -105.14743,-5.30615 -31.25064,-15.56923 -50.64698,-36.86702 -59.147,-64.94527 -3.65025,-12.05791 -3.86296,-29.83691 -0.49928,-41.73173 7.08608,-25.05819 24.90256,-42.68292 52.17753,-51.61599 l 9.7926,-3.20727 1.21224,-6.61666 c 1.93862,-10.58139 6.69508,-21.60773 14.09423,-32.67292 18.79157,-28.10223 49.62282,-44.53028 86.2555,-45.96021 l 11.88583,-0.46395 4.67341,-4.37143 c 21.51417,-20.12398 46.98768,-30.58589 74.55494,-30.61951 21.71679,-0.0265 37.59126,5.64246 51.08307,18.24231 6.18344,5.77465 8.23668,8.55539 12.17721,16.49179 l 4.73972,9.54598 v 13.59564 c 0,13.15924 -0.10051,13.80775 -3.13127,20.20418 -3.11908,6.58282 -7.77424,11.30887 -11.86873,12.04943 -1.63535,0.29579 -2.09135,1.36273 -2.50102,5.85188 -0.6175,6.76651 -3.64494,11.87148 -8.69957,14.66951 -8.02908,4.44456 -15.42169,3.7862 -21.9615,-1.95583 C 694.93687,327.85937 693,323.54815 693,317.61615 c 0,-5.21396 -0.74222,-5.90634 -18.55003,-17.30452 -21.65989,-13.86376 -42.65281,-23.06386 -60.22255,-26.3924 -5.69789,-1.07945 -6.46111,-1.01772 -8.33022,0.6738 -2.65724,2.40478 -11.609,16.88738 -16.69096,27.00349 -7.37882,14.68822 -21.40856,50.72112 -20.13504,51.71328 0.23584,0.18374 4.5808,1.5569 9.65547,3.05146 5.07467,1.49457 19.92467,7.01976 33,12.2782 60.18377,24.20383 56.33631,22.80403 58.64969,21.33821 8.07611,-5.11725 15.31809,-5.80298 22.41287,-2.12223 10.11014,5.2451 12.1424,19.08588 3.94193,26.84666 -4.59654,4.35008 -6.8954,5.2979 -12.84969,5.2979 -9.35216,0 -16.03018,-4.64329 -18.74992,-13.03699 -0.91398,-2.82076 -2.00519,-3.86749 -5.3888,-5.16915 -2.33351,-0.8977 -18.19275,-7.31434 -35.24275,-14.25922 -28.08071,-11.43795 -59.3379,-23.03007 -60.08478,-22.28319 -0.16144,0.16144 -1.71091,3.88341 -3.44326,8.27104 -8.67419,21.96969 -16.32446,36.17316 -26.94242,50.02128 -3.31625,4.3251 -6.02954,8.14832 -6.02954,8.49604 0,1.30595 14.18957,16.70999 21.20592,23.02091 30.98485,27.8696 66.51964,47.98508 100.79408,57.05736 16.26606,4.30555 36.38349,5.10322 49.48467,1.9621 14.76053,-3.53895 27.57999,-12.18616 32.94248,-22.22092 4.16244,-7.78914 5.3347,-8.85926 9.70478,-8.85926 2.95644,0 4.18689,0.55695 5.4334,2.45936 2.17429,3.31839 1.24476,6.9772 -3.72674,14.66907 -12.14193,18.78594 -32.04958,28.54566 -59.83859,29.33586 -6.875,0.19549 -14.075,0.16547 -16,-0.0667 z M 559.21777,504.97597 c 9.01134,-1.25336 21.98952,-5.09784 22.51324,-6.66901 0.2117,-0.6351 -1.77867,-2.41659 -4.42305,-3.95887 C 566.20259,487.8711 547.64309,472.74305 533.07893,458.29652 524.59733,449.88343 517.32127,443 516.90989,443 c -0.41138,0 -3.35586,2.22541 -6.54329,4.94535 -10.39814,8.87308 -32.99806,20.23094 -45.053,22.64193 -4.20381,0.84076 -3.5766,2.04173 4.4079,8.44011 25.28805,20.26458 59.35241,30.14121 89.49627,25.94858 z m -96.19256,-47.52881 c 14.89159,-4.67802 34.05908,-15.11864 42.87571,-23.35461 l 3.19905,-2.98835 -3.09828,-5.3021 c -12.64694,-21.64278 -19.92878,-43.14314 -19.98005,-58.99308 -0.0119,-3.68004 -0.36665,-6.90421 -0.78832,-7.16482 -1.10894,-0.68536 -13.81066,3.91806 -18.67294,6.76755 -2.27982,1.33606 -7.27606,5.33915 -11.10275,8.89574 -19.85158,18.4504 -23.77896,48.41744 -9.92773,75.75151 2.82557,5.57599 7.66746,11.23969 8.48204,9.92168 0.29616,-0.4792 4.35213,-2.06929 9.01327,-3.53352 z M 522.78668,415.25 c 6.77491,-8.59838 17.47912,-28.31499 23.22482,-42.77894 3.43994,-8.65956 3.68195,-10.99061 1.2385,-11.92956 -5.61801,-2.15884 -17.71332,-3.84181 -31.63779,-4.40215 L 499.72442,355.5 500.30844,366 c 0.66686,11.9892 2.93816,21.68058 8.05523,34.37071 3.59314,8.91084 9.15241,18.62929 10.65655,18.62929 0.44645,0 2.14135,-1.6875 3.76646,-3.75 z m 34.23367,-72.47875 c 10.54113,-28.99273 17.40032,-44.77913 25.94207,-59.70559 2.77067,-4.84165 5.03758,-9.37425 5.03758,-10.07243 0,-2.86316 -23.44287,1.57436 -34.76168,6.58008 -9.23693,4.08501 -24.63189,14.94256 -30.72931,21.67237 -10.3087,11.37784 -18.42293,26.11018 -20.07655,36.45132 -0.57999,3.62709 -0.41454,4.07583 1.71276,4.64531 1.29513,0.34671 6.17978,0.64544 10.85478,0.66384 12.5311,0.0493 34.76663,3.66413 37.41008,6.0817 1.46031,1.33552 2.19321,0.33137 4.61027,-6.3166 z m 171.91679,-43.33318 c 9.28474,-14.64052 5.44041,-35.46651 -9.01777,-48.85223 -6.74775,-6.24723 -10.14441,-8.19314 -20.41937,-11.69806 -6.07631,-2.0727 -8.84738,-2.38651 -21,-2.37817 -16.12166,0.0111 -24.31726,1.83824 -38,8.4719 -8.69496,4.21548 -20,12.72944 -20,15.06223 0,0.95937 3.75329,2.73641 11,5.20807 18.97695,6.47253 33.75683,14.0172 55.85503,28.51225 11.48635,7.53434 13.18987,8.3542 16,7.70034 5.61398,-1.30626 13.99812,-0.9083 17.14497,0.81379 4.44654,2.43334 5.26822,2.15675 8.43714,-2.84012 z m 111.07893,229.02762 c -17.36575,-3.1414 -33.48984,-10.92566 -42.70146,-20.61508 -4.8355,-5.08631 -10.31667,-14.821 -10.2993,-18.29178 0.0195,-3.89643 0.86603,-5.18302 4.259,-6.47302 4.15241,-1.57874 7.00925,0.30406 10.84508,7.14744 4.35337,7.76671 11.35671,13.90977 21.38061,18.75425 12.09686,5.84633 15.22709,6.47464 32,6.42322 20.16315,-0.0618 34.83117,-3.2148 56.5,-12.14503 22.36246,-9.21609 47.75576,-25.20914 68.38736,-43.0713 C 990.79122,451.18707 1007,434.21624 1007,432.33056 c 0,-0.71952 -1.9609,-3.90075 -4.3575,-7.06939 -10.21515,-13.50559 -20.25118,-31.73161 -26.25975,-47.68921 -4.15806,-11.04299 -5.5659,-13.88149 -6.31194,-12.72613 -0.31395,0.48619 -5.97081,2.71842 -12.57081,4.96052 -11.25576,3.82371 -28.57223,10.59242 -69,26.9709 -16.57462,6.71486 -17.05023,6.98967 -19.00742,10.98231 -4.16984,8.50641 -9.75138,12.25309 -18.21046,12.22399 -5.85547,-0.0201 -11.80488,-3.15164 -15.00255,-7.89666 -2.78613,-4.13434 -3.09515,-12.56592 -0.64944,-17.71987 3.8115,-8.03215 16.33865,-10.88376 25.77385,-5.86702 2.58601,1.375 5.40587,2.5 6.26635,2.5 0.86047,0 9.27416,-3.20795 18.69708,-7.12878 49.04357,-20.40677 78.63303,-31.48728 80.18434,-30.02703 1.11968,1.05395 -0.35921,-3.2781 -7.28653,-21.34419 -9.08987,-23.7059 -14.59873,-35.47217 -21.77085,-46.5 -8.17058,-12.56304 -9.22615,-13.44568 -15.11486,-12.63854 -13.54526,1.85658 -41.38603,13.9775 -58.94452,25.66241 C 842.71235,312.81448 842,313.48335 842,319.15062 c 0,13.52798 -17.18142,22.28924 -28.72707,14.6487 C 808.45259,330.60936 805,324.09825 805,318.1977 c 0,-3.75374 -0.32503,-4.3099 -3.25,-5.56112 C 797.2291,310.70267 793.59559,306.53156 790.30654,299.5 787.67953,293.88382 787.5,292.66239 787.5,280.40607 v -13.09393 l 4.86363,-9.7973 c 12.169,-24.51322 36.16601,-36.90068 68.13637,-35.17257 25.14902,1.3594 48.72858,11.87117 69.19014,30.84497 l 5.19014,4.81276 8.30986,0.006 c 9.13149,0.006 25.31225,2.17491 32.78219,4.39324 2.62773,0.78035 8.09644,2.8745 12.15268,4.65365 32.13109,14.09337 52.27619,38.14567 60.12809,71.79004 l 1.2469,5.34282 8.5,2.72357 c 27.9104,8.94305 46.1948,26.92175 52.6078,51.72821 2.2667,8.76798 2.4958,11.24988 2.0649,22.36257 -0.5289,13.63745 -2.0907,20.76798 -6.8994,31.5 -13.7451,30.67616 -44.6735,54.22575 -84.3046,64.19136 -10.0907,2.53739 -12.4896,2.7558 -29.9687,2.72847 -16.22358,-0.0254 -20.29991,-0.35412 -27.89572,-2.24972 -8.7683,-2.18821 -22.95599,-7.38719 -25.16724,-9.22236 -0.74742,-0.6203 -3.90389,0.43124 -9.26428,3.0863 -18.75895,9.29152 -41.2717,15.97839 -60.40483,17.94182 -12.68822,1.30206 -19.39121,1.18312 -28.75186,-0.51018 z m 170.59853,-24.01364 c 21.4629,-3.74281 44.9798,-15.07145 58.5656,-28.21237 l 4.6801,-4.52691 -10.0375,-3.36761 c -12.5415,-4.20771 -27.2163,-11.7387 -36.2299,-18.59285 -3.7988,-2.88877 -7.4817,-5.68132 -8.1841,-6.20567 -0.9306,-0.69469 -4.1054,2.01857 -11.701,10 -13.21536,13.88657 -25.68382,24.67395 -40.98,35.45478 -6.63414,4.67579 -12.23059,9.00694 -12.43653,9.62478 -0.50686,1.52057 6.68312,4.29391 15.20873,5.86636 9.92957,1.83139 30.49658,1.81112 41.1146,-0.0405 z m 78.6807,-53.28383 c 6.6835,-12.89163 8.1942,-19.15371 8.1225,-33.66822 -0.057,-11.58899 -0.3511,-13.7359 -2.7075,-19.78007 -6.3992,-16.41392 -17.2581,-27.55354 -34.4001,-35.28935 -8.4571,-3.81653 -9.8339,-4.186 -9.9818,-2.67886 -1.2697,12.93917 -2.7946,23.87917 -4.0071,28.74828 -2.1051,8.45355 -7.6428,21.5151 -13.4055,31.61867 -2.7037,4.74027 -4.9158,9.31771 -4.9158,10.17208 0,1.77165 6.0768,7.22839 13.6665,12.27203 7.9613,5.29052 17.8026,10.01223 29.8484,14.32076 12.8317,4.58964 12.3591,4.74153 17.7804,-5.71532 z M 1018.8037,416.25 c 5.4387,-7.71014 12.5508,-25.55869 14.7785,-37.08797 0.7798,-4.03588 1.4178,-10.89838 1.4178,-15.25 V 356 l -11.75,0.004 c -14.9174,0.005 -37.25,3.51784 -37.25,5.85958 0,7.7621 25.9093,57.13661 29.9824,57.13661 0.4848,0 1.7543,-1.2375 2.8213,-2.75 z M 984.97206,347 c 0.45606,0 5.93641,-0.87145 12.17857,-1.93656 6.24217,-1.0651 17.08687,-2.0356 24.09937,-2.15665 9.349,-0.16138 12.75,-0.55033 12.75,-1.45811 0,-3.19157 -4.6341,-15.68695 -8.2906,-22.35459 -6.203,-11.31141 -14.7626,-21.40037 -23.9111,-28.18359 -9.58593,-7.10754 -23.65814,-14.09332 -32.89454,-16.32964 -8.99785,-2.17857 -21.22557,-3.64104 -22.21903,-2.65747 -0.4484,0.44393 1.05418,3.68028 3.33906,7.19188 6.56754,10.09355 16.46086,31.05803 22.36127,47.38473 8.56265,23.69327 8.56325,23.69455 10.28433,21.97347 C 983.4798,347.66306 984.516,347 984.97206,347 Z M 813.4691,303.44774 c 3.96494,-2.99751 9.22946,-3.67729 15.14977,-1.95621 l 5.5031,1.5998 16.68902,-11.13421 c 18.22597,-12.1596 37.11449,-21.84171 52.68901,-27.00798 5.5,-1.82442 10.41687,-3.67369 10.92637,-4.1095 2.08117,-1.78015 -8.30822,-9.74109 -21.13805,-16.1972 -12.16341,-6.12075 -22.91845,-8.71274 -36.78832,-8.86606 -17.96074,-0.19854 -30.44584,4.26115 -41.53153,14.83511 -12.48823,11.91175 -16.6221,27.55711 -11.36926,43.02899 1.83869,5.41572 5.45378,11.34345 6.90079,11.31534 0.55,-0.0107 1.8861,-0.68932 2.9691,-1.50808 z"
         id="path1220" />
      <path
         style="fill:#f4c63b"
         d="m 683.7175,682.97196 c -8.82504,-2.2263 -14.67552,-7.72414 -17.17457,-16.13937 -2.27496,-7.66059 -2.24395,-41.34961 0.0389,-42.2256 2.74013,-1.05149 8.12958,-0.65969 9.2342,0.67129 0.64314,0.77494 1.18357,9.01334 1.37245,20.92195 0.30713,19.3644 0.3471,19.68215 2.81156,22.3506 7.49284,8.11303 21.8932,7.01998 26.39116,-2.00321 1.6665,-3.34311 1.869,-5.90356 1.7046,-21.55388 C 707.88735,625.15277 708.23621,624 714.44898,624 c 5.60709,0 5.83361,0.93967 5.36256,22.24539 -0.37059,16.76213 -0.69274,19.83713 -2.48862,23.75461 -2.46066,5.36762 -6.45321,9.32174 -11.57092,11.45954 -4.65082,1.94276 -16.97534,2.7887 -22.0345,1.51242 z M 539.66667,682.33333 C 539.3,681.96667 539,671.48167 539,659.03333 c 0,-16.27037 -0.33736,-22.97069 -1.2,-23.83333 -0.75152,-0.75152 -4.48889,-1.2 -10,-1.2 H 519 v -4.39301 c 0,-3.08336 0.47156,-4.57397 1.58179,-5 C 521.45177,624.27314 532.21497,624 544.5,624 c 12.28503,0 23.04823,0.27314 23.91821,0.60699 1.10736,0.42493 1.58179,1.91333 1.58179,4.96247 v 4.35549 l -9.25,0.28752 -9.25,0.28753 -0.54566,24 c -0.30012,13.2 -0.63762,24.1125 -0.75,24.25 -0.46624,0.57042 -9.92457,0.19643 -10.53767,-0.41667 z m 49,0 C 588.3,681.96667 588,669.23167 588,654.03333 c 0,-20.15926 0.32457,-27.9579 1.2,-28.83333 1.55247,-1.55247 8.04753,-1.55247 9.6,0 0.79039,0.79039 1.2,5.02067 1.2,12.39301 0,9.28407 0.26977,11.29653 1.58179,11.8 2.54671,0.97727 25.77554,0.66657 27.40975,-0.36662 1.14243,-0.72227 1.57678,-3.62807 1.85571,-12.41465 l 0.36416,-11.47166 3.92888,-0.66378 c 7.04185,-1.18971 6.9236,-1.72357 6.62505,29.90888 L 641.5,682.5 l -4.38586,0.31414 c -2.41223,0.17277 -4.88723,-0.18713 -5.5,-0.79978 -0.65304,-0.65291 -1.16469,-5.2783 -1.23627,-11.1761 -0.0893,-7.35311 -0.49311,-10.29714 -1.5,-10.93491 -1.55143,-0.98266 -24.84846,-1.2356 -27.29608,-0.29636 -1.29923,0.49856 -1.58179,2.4278 -1.58179,10.8 0,6.59456 -0.42364,10.61665 -1.2,11.39301 -1.2649,1.2649 -8.99493,1.67174 -10.13333,0.53333 z m 155.0461,0.0461 C 743.32075,681.98741 743,668.92524 743,653.35239 V 625.0381 l 2.56741,-0.64438 c 5.51078,-1.38311 7.81484,0.52865 23.02699,19.10628 8.10654,9.9 15.22661,18 15.82238,18 0.72785,0 1.17251,-5.95501 1.3554,-18.15152 0.19851,-13.23908 0.60447,-18.26861 1.5,-18.58416 0.6753,-0.23794 3.14714,-0.23434 5.49298,0.008 l 4.26516,0.44063 -0.26516,28.64352 L 796.5,682.5 l -4.3787,0.31379 c -5.4832,0.39293 -5.92857,-0.016 -22.82936,-20.9593 -7.03557,-8.71843 -13.34429,-15.85232 -14.01938,-15.85309 -0.91519,-10e-4 -1.29678,4.64125 -1.5,18.2486 L 753.5,682.5 l -4.53723,0.2961 c -2.49548,0.16286 -4.85798,-0.0246 -5.25,-0.41667 z m 78.03723,0.0468 C 821.3375,682.00845 821,668.98077 821,653.47579 v -28.19088 l 6.14669,-0.64245 c 31.51545,-3.29402 49.63397,6.9511 49.80942,28.16472 0.10449,12.63447 -4.89725,21.06882 -15.62771,26.35277 -6.70399,3.30121 -6.96917,3.34404 -22.80563,3.6829 -8.81252,0.18856 -16.36027,10e-4 -16.77277,-0.41667 z m 33.99316,-11.98548 c 6.40404,-3.19127 9.3997,-8.56205 9.3997,-16.85232 C 865.14286,640.58089 856.79592,634 840.29777,634 831.91011,634 832,633.79467 832,652.9534 c 0,9.28566 0.27314,17.59483 0.60699,18.46481 0.48911,1.2746 2.29592,1.58179 9.30365,1.58179 7.32569,0 9.50631,-0.40346 13.83252,-2.5593 z m 41.92351,11.89263 C 897.3,681.96667 897,668.96481 897,653.44032 c 0,-24.81624 0.1911,-28.29967 1.58179,-28.83333 C 899.45177,624.27314 909.07167,624 919.95934,624 c 21.89891,0 22.43791,0.1525 21.85889,6.18468 L 941.5,633.5 l -15.43009,0.27702 c -9.61288,0.17258 -15.94414,0.70364 -16.7936,1.40863 -0.94531,0.78454 -1.27346,2.99987 -1.06991,7.22298 L 908.5,648.5 923,649 l 14.5,0.5 0.30588,4.21692 c 0.37676,5.19403 0.35145,5.20237 -16.80588,5.53832 L 908.5,659.5 v 6.5 6.5 l 16.46067,0.5 16.46067,0.5 0.69603,3.41135 C 943.388,683.13891 943.89124,683 920.05968,683 c -11.94949,0 -22.02635,-0.3 -22.39301,-0.66667 z m 66.0461,0.0461 C 963.32075,681.98741 963,668.92524 963,653.35239 V 625.0381 l 2.56991,-0.645 c 4.80862,-1.20689 29.63486,0.25602 34.42636,2.0286 14.58323,5.39495 17.49143,21.75667 5.82933,32.79583 -3.2413,3.06814 -4.7179,5.16593 -4.2232,6 0.4182,0.70536 3.1538,4.54062 6.079,8.5228 2.9252,3.98219 5.3186,7.71616 5.3186,8.29772 0,0.66204 -2.3337,0.94607 -6.2417,0.75967 l -6.2418,-0.29772 -4.76786,-7 c -6.30003,-9.24947 -7.9279,-10.5 -13.66829,-10.5 -6.98358,0 -7.96807,1.18629 -8.29886,10 l -0.28149,7.5 -4.53723,0.2961 c -2.49548,0.16286 -4.85798,-0.0246 -5.25,-0.41667 z M 992,654.91458 c 5.49376,-1.26543 8.7693,-4.16812 9.58,-8.48945 0.8313,-4.4311 -1.3192,-8.5438 -5.58115,-10.67358 -4.18819,-2.09292 -18.86819,-2.48221 -20.79885,-0.55155 -0.75048,0.75048 -1.2,4.47785 -1.2,9.95031 0,7.27866 0.29432,8.92173 1.75,9.76959 2.26343,1.31833 10.51521,1.31563 16.25,-0.005 z M 668,529.39756 C 648.35908,527.0285 632.51646,522.29774 607.5,511.3317 594.77673,505.75441 593.98563,505.31426 579,495.4748 559.72516,482.81908 548.809,473.96211 532.60246,457.82954 524.40881,449.67329 517.35775,443 516.93342,443 c -0.42432,0 -3.37939,2.22541 -6.56682,4.94535 -10.6309,9.0717 -34.37062,20.88282 -45.65345,22.71377 -2.98301,0.48408 -3.6781,0.0896 -7.01219,-3.97919 C 455.66543,464.19584 454,461.72968 454,461.19956 c 0,-0.53011 3.9375,-2.18738 8.75,-3.68281 15.03163,-4.67092 34.23465,-15.09515 43.15092,-23.4242 l 3.19905,-2.98835 -3.09828,-5.3021 C 493.42893,404.28627 486.09571,382.72082 486.00633,367 c -0.0554,-9.75047 -0.1817,-9.81776 -11.09599,-5.91362 -9.5021,3.39899 -11.97613,5.05045 -22.24315,14.84769 -6.4414,6.14666 -12.62068,17.03434 -15.22296,26.82232 -2.17075,8.16486 -2.11111,25.70377 0.11039,32.46492 3.75554,11.42998 9.38382,21.94488 14.98429,27.99406 3.07025,3.31623 6.5675,7.36263 7.77168,8.992 5.13328,6.94581 27.60474,21.6864 40.84251,26.79142 9.22863,3.55894 27.10628,7.59548 37.94794,8.56814 9.0823,0.81483 21.95724,-0.74836 34.08713,-4.13862 4.7785,-1.33557 9.33432,-2.42831 10.12405,-2.42831 0.78973,0 3.54269,1.17752 6.11769,2.61672 4.56227,2.5499 4.62817,2.6543 2.58056,4.0885 -3.89757,2.72996 -13.44953,6.04338 -23.92517,8.29926 -9.1823,1.97736 -12.37731,2.18338 -27,1.74102 -14.35116,-0.43415 -18.16157,-0.91824 -28.28684,-3.5937 -20.78128,-5.49115 -39.66789,-14.8366 -53.59958,-26.52209 -14.73492,-12.35921 -20.76989,-20.09467 -27.79354,-35.62495 -5.00301,-11.06235 -5.01535,-11.15165 -3.85076,-27.85543 0.55276,-7.92829 0.37817,-9.85901 -1.14774,-12.69245 -1.73485,-3.22143 -1.73346,-3.62296 0.0386,-11.14933 3.17875,-13.50082 7.49434,-21.46499 16.80227,-31.00763 8.82839,-9.05101 18.05577,-14.9025 31.35019,-19.88055 10.65769,-3.99073 10.3924,-3.95817 10.47708,-1.286 0.0412,1.30165 1.13429,-2.61129 2.42897,-8.69542 3.14128,-14.76189 6.5614,-22.92693 14.7082,-35.1137 18.69905,-27.97185 49.6066,-44.41334 86.17365,-45.84071 l 11.88583,-0.46395 4.67341,-4.37143 c 21.51417,-20.12398 46.98768,-30.58589 74.55494,-30.61951 21.71679,-0.0265 37.59126,5.64246 51.08307,18.24231 6.18344,5.77465 8.23668,8.55539 12.17721,16.49179 l 4.73972,9.54598 v 13.59564 c 0,13.15924 -0.10051,13.80775 -3.13127,20.20418 -3.11908,6.58282 -7.77424,11.30887 -11.86873,12.04943 -1.63535,0.29579 -2.09135,1.36273 -2.50102,5.85188 -0.6175,6.76651 -3.64494,11.87148 -8.69957,14.66951 -8.02908,4.44456 -15.42169,3.7862 -21.9615,-1.95583 C 694.93687,327.85937 693,323.54815 693,317.61615 c 0,-5.21396 -0.74222,-5.90634 -18.55003,-17.30452 -21.65989,-13.86376 -42.65281,-23.06386 -60.22255,-26.3924 -7.69221,-1.45727 -8.09422,-1.17199 -15.7193,11.15487 -7.10487,11.48587 -12.09307,21.56779 -19.01187,38.4259 -7.04741,17.1715 -9.33887,23.63657 -10.50015,29.62487 -0.49328,2.54369 -2.65757,8.39369 -4.80953,13 -2.15196,4.60632 -4.25563,9.50013 -4.67482,10.87513 -1.60021,5.2489 -10.67621,24.19994 -15.00278,31.3264 -2.4859,4.09461 -7.21737,10.96294 -10.51439,15.26296 -3.29702,4.30003 -5.99458,8.10273 -5.99458,8.45045 0,1.30595 14.18957,16.70999 21.20592,23.02091 30.98485,27.8696 66.51964,47.98508 100.79408,57.05736 16.26606,4.30555 36.38349,5.10322 49.48467,1.9621 14.76053,-3.53895 27.57999,-12.18616 32.94248,-22.22092 4.16244,-7.78914 5.3347,-8.85926 9.70478,-8.85926 2.95644,0 4.18689,0.55695 5.4334,2.45936 2.17429,3.31839 1.24476,6.9772 -3.72674,14.66907 -12.14193,18.78594 -32.04958,28.54566 -59.83859,29.33586 -6.875,0.19549 -14.075,0.16547 -16,-0.0667 z M 522.78668,415.25 c 6.76809,-8.58972 17.59659,-28.53027 23.08074,-42.50291 3.0957,-7.88729 4.61691,-14.16446 3.224,-13.30359 -0.48315,0.2986 -2.8209,-0.14241 -5.19498,-0.98004 -6.84765,-2.41599 -21.5466,-4.45507 -32.14644,-4.45944 L 502,354 v -5 -5 l 6.75,0.0258 c 9.76265,0.0373 25.55382,1.68653 34.5,3.60315 7.63611,1.63596 7.75038,1.70599 7.77572,4.7657 0.0251,3.02866 0.0865,2.9871 2.48515,-1.6826 1.35268,-2.63338 3.77678,-8.48338 5.38688,-13 8.2555,-23.15814 15.63533,-39.91636 24.06467,-54.64639 2.77067,-4.84165 5.03758,-9.37425 5.03758,-10.07243 0,-2.86316 -23.44287,1.57436 -34.76168,6.58008 -3.11784,1.37886 -10.03243,5.41199 -15.36575,8.96253 -19.32508,12.86523 -32.71927,32.41277 -36.02058,52.56861 -1.99627,12.18801 -1.54514,34.03595 0.88598,42.90771 C 506.69411,398.44911 516.25785,419 519.02022,419 c 0.44645,0 2.14135,-1.6875 3.76646,-3.75 z M 728.93714,299.43807 c 9.28474,-14.64052 5.44041,-35.46651 -9.01777,-48.85223 -6.74775,-6.24723 -10.14441,-8.19314 -20.41937,-11.69806 -6.07631,-2.0727 -8.84738,-2.38651 -21,-2.37817 -16.12166,0.0111 -24.31726,1.83824 -38,8.4719 -8.69496,4.21548 -20,12.72944 -20,15.06223 0,0.95937 3.75329,2.73641 11,5.20807 18.97695,6.47253 33.75683,14.0172 55.85503,28.51225 11.48635,7.53434 13.18987,8.3542 16,7.70034 5.61398,-1.30626 13.99812,-0.9083 17.14497,0.81379 4.44654,2.43334 5.26822,2.15675 8.43714,-2.84012 z m 111.07893,229.02762 c -17.36575,-3.1414 -33.48984,-10.92566 -42.70146,-20.61508 -4.8355,-5.08631 -10.31667,-14.821 -10.2993,-18.29178 0.0195,-3.89643 0.86603,-5.18302 4.259,-6.47302 4.15241,-1.57874 7.00925,0.30406 10.84508,7.14744 4.35337,7.76671 11.35671,13.90977 21.38061,18.75425 12.09686,5.84633 15.22709,6.47464 32,6.42322 20.16315,-0.0618 34.83117,-3.2148 56.5,-12.14503 22.36246,-9.21609 47.75576,-25.20914 68.38736,-43.0713 C 990.79122,451.18707 1007,434.21624 1007,432.33056 c 0,-0.71952 -1.9609,-3.90075 -4.3575,-7.06939 -10.20635,-13.49395 -20.23706,-31.70617 -26.26572,-47.68921 -1.88202,-4.98958 -4.51382,-11.11578 -5.84843,-13.61379 -1.33462,-2.49801 -2.92195,-6.7523 -3.52741,-9.45399 -1.34709,-6.01099 -12.60324,-35.3651 -18.79118,-49.00418 -4.72056,-10.40478 -15.32663,-27.61677 -19.03352,-30.88843 -2.86334,-2.52716 -7.92171,-1.79273 -23.47969,3.40902 -16.68089,5.57719 -32.06344,13.84644 -54.76156,29.43838 -7.44791,5.11617 -8.93499,7.06204 -8.93499,11.69165 0,13.52798 -17.18142,22.28924 -28.72707,14.6487 C 808.45259,330.60936 805,324.09825 805,318.1977 c 0,-3.75374 -0.32503,-4.3099 -3.25,-5.56112 C 797.2291,310.70267 793.59559,306.53156 790.30654,299.5 787.67953,293.88382 787.5,292.66239 787.5,280.40607 v -13.09393 l 4.86363,-9.7973 c 12.169,-24.51322 36.16601,-36.90068 68.13637,-35.17257 25.14902,1.3594 48.72858,11.87117 69.19014,30.84497 l 5.19014,4.81276 8.30986,0.006 c 9.13149,0.006 25.31225,2.17491 32.78219,4.39324 13.59042,4.03592 30.57777,13.4747 41.43797,23.02443 13.0099,11.44008 25.5231,31.47253 29.0938,46.57643 3.4333,14.52271 2.6293,13.33008 10.7251,15.90961 27.3869,8.72629 45.8759,26.60944 51.9236,50.22211 2.6513,10.35159 2.8676,27.71129 0.4833,38.78194 -6.8031,31.5874 -36.9506,61.64294 -74.6361,74.40846 -24.9389,8.44777 -51.5688,9.54105 -75.92717,3.11718 -5.18495,-1.36739 -12.05092,-3.66364 -15.25773,-5.10276 l -5.83055,-2.6166 -8.58413,4.21426 c -19.37923,9.51397 -41.40835,16.06891 -60.63249,18.04167 -12.68822,1.30206 -19.39121,1.18312 -28.75186,-0.51018 z M 1003.5,506.97636 c 26.3007,-3.6972 51.5999,-15.08232 66.4829,-29.91859 16.3246,-16.27328 23.6758,-27.7623 27.6275,-43.17873 2.4438,-9.53355 1.5591,-29.36552 -1.6452,-36.87904 -7.1271,-16.71186 -18.4982,-28.3973 -34.3955,-35.34639 l -10.0697,-4.40169 -0.5998,-4.37596 c -0.4585,-3.34535 -0.6352,-2.35618 -0.75,4.19997 -0.1795,10.2463 -2.483,27.38243 -4.662,34.68027 -2.372,7.94437 -7.8136,20.16743 -12.9185,29.01777 -2.5133,4.35741 -4.5697,8.63077 -4.5697,9.49637 0,0.8656 1.9125,3.213 4.25,5.21645 10.0296,8.59629 23.9212,16.11805 39.9951,21.65583 5.3598,1.84656 9.7473,3.83888 9.75,4.42738 0.01,1.95455 -7.1204,9.43 -8.9933,9.43 -3.3482,0 -19.3452,-6.12214 -29.0018,-11.09912 -5.225,-2.69294 -12.6082,-7.25979 -16.4071,-10.14857 -3.7988,-2.88877 -7.4856,-5.68379 -8.1928,-6.21116 -0.9417,-0.70224 -4.0012,1.90652 -11.4319,9.74769 -12.52171,13.21354 -27.40155,26.14546 -40.50901,35.20605 -5.47756,3.78637 -11.23903,7.93057 -12.80328,9.20933 l -2.84409,2.325 4.48934,1.98585 c 10.96521,4.85043 32.14799,7.07706 47.19884,4.96129 z M 1018.8037,416.25 c 5.4387,-7.71014 12.5508,-25.55869 14.7785,-37.08797 0.7864,-4.07031 1.3511,-12.30851 1.268,-18.5 -0.082,-6.13912 -0.3289,-10.03703 -0.5478,-8.66203 l -0.3979,2.5 -13.7022,0.15914 c -8.7584,0.10172 -16.4084,0.77388 -21.2023,1.86292 -4.125,0.93708 -8.47169,1.92263 -9.65931,2.1901 -1.79126,0.40343 -2.51772,-0.32393 -4.26213,-4.26746 -1.15655,-2.61458 -1.97726,-4.87934 -1.82379,-5.0328 1.39766,-1.39766 23.95273,-4.66758 35.41433,-5.13419 l 14.1692,-0.57683 0.431,2.89956 c 0.3004,2.02067 0.4765,1.4917 0.5809,-1.7451 0.3236,-10.03351 -7.1517,-26.81174 -18.0635,-40.54309 -10.1629,-12.78901 -30.70086,-25.81338 -46.88294,-29.73139 -8.99785,-2.17857 -21.22557,-3.64104 -22.21903,-2.65747 -0.4484,0.44393 1.05418,3.68028 3.33906,7.19188 6.64117,10.20671 16.48617,31.12649 22.53491,47.88473 3.07702,8.525 6.97258,18.6428 8.6568,22.484 1.68422,3.84119 4.38701,11.26619 6.00618,16.5 4.69198,15.16625 25.22512,53.016 28.76072,53.016 0.4848,0 1.7543,-1.2375 2.8213,-2.75 z M 813.4691,303.44774 c 3.96494,-2.99751 9.22946,-3.67729 15.14977,-1.95621 l 5.5031,1.5998 16.68902,-11.13421 c 18.22597,-12.1596 37.11449,-21.84171 52.68901,-27.00798 5.5,-1.82442 10.41687,-3.67369 10.92637,-4.1095 2.08117,-1.78015 -8.30822,-9.74109 -21.13805,-16.1972 -12.16341,-6.12075 -22.91845,-8.71274 -36.78832,-8.86606 -17.96074,-0.19854 -30.44584,4.26115 -41.53153,14.83511 -12.48823,11.91175 -16.6221,27.55711 -11.36926,43.02899 1.83869,5.41572 5.45378,11.34345 6.90079,11.31534 0.55,-0.0107 1.8861,-0.68932 2.9691,-1.50808 z M 675.02043,416.75 c -5.03422,-2.57236 -7.92919,-6.06882 -8.88196,-10.72736 -0.54516,-2.6655 -1.44748,-3.54446 -5.14972,-5.01642 C 658.51994,400.02465 651.1,396.9997 644.5,394.2841 616.4241,382.73215 581.95926,369.17409 575,366.94362 c -4.125,-1.32208 -7.68291,-2.52066 -7.90647,-2.6635 -0.30716,-0.19627 2.39151,-7.2515 3.46507,-9.05888 0.35055,-0.59016 31.71724,10.81865 47.4414,17.25556 52.80657,21.61711 48.88673,20.4135 55.53189,17.05136 C 687.03758,382.6949 700,389.34795 700,403.11309 c 0,5.13141 -0.38136,6.25166 -3.23438,9.50107 -5.84595,6.65818 -13.83513,8.17768 -21.74519,4.13584 z m 168.94953,0 c -11.39692,-5.75755 -12.35909,-20.92141 -1.723,-27.15458 6.14943,-3.6038 11.87335,-3.47736 19.29414,0.4262 l 5.74418,3.02162 17.60736,-7.17884 C 894.57669,381.91603 911.725,374.92521 923,370.32924 c 18.42399,-7.51009 41.93958,-15.8919 42.43249,-15.12447 0.55633,0.86616 3.50971,9.17292 3.30676,9.30067 -0.13159,0.0828 -5.8179,2.07479 -12.63625,4.42659 -12.2484,4.22474 -35.53077,13.35383 -68.603,26.89945 -16.29764,6.67514 -17.08263,7.12601 -19,10.91306 -3.12503,6.17232 -6.14226,9.36397 -10.23165,10.8231 -5.45818,1.94752 -9.25455,1.73043 -14.29839,-0.81764 z"
         id="path1218" />
      <path
         style="fill:#6c8bb3"
         d="m 683.7175,682.97196 c -8.82504,-2.2263 -14.67552,-7.72414 -17.17457,-16.13937 -2.27496,-7.66059 -2.24395,-41.34961 0.0389,-42.2256 2.74013,-1.05149 8.12958,-0.65969 9.2342,0.67129 0.64314,0.77494 1.18357,9.01334 1.37245,20.92195 0.30713,19.3644 0.3471,19.68215 2.81156,22.3506 7.49284,8.11303 21.8932,7.01998 26.39116,-2.00321 1.6665,-3.34311 1.869,-5.90356 1.7046,-21.55388 C 707.88735,625.15277 708.23621,624 714.44898,624 c 5.60709,0 5.83361,0.93967 5.36256,22.24539 -0.37059,16.76213 -0.69274,19.83713 -2.48862,23.75461 -2.46066,5.36762 -6.45321,9.32174 -11.57092,11.45954 -4.65082,1.94276 -16.97534,2.7887 -22.0345,1.51242 z M 539.66667,682.33333 C 539.3,681.96667 539,671.48167 539,659.03333 c 0,-16.27037 -0.33736,-22.97069 -1.2,-23.83333 -0.75152,-0.75152 -4.48889,-1.2 -10,-1.2 H 519 v -4.39301 c 0,-3.08336 0.47156,-4.57397 1.58179,-5 C 521.45177,624.27314 532.21497,624 544.5,624 c 12.28503,0 23.04823,0.27314 23.91821,0.60699 1.10736,0.42493 1.58179,1.91333 1.58179,4.96247 v 4.35549 l -9.25,0.28752 -9.25,0.28753 -0.54566,24 c -0.30012,13.2 -0.63762,24.1125 -0.75,24.25 -0.46624,0.57042 -9.92457,0.19643 -10.53767,-0.41667 z m 49,0 C 588.3,681.96667 588,669.23167 588,654.03333 c 0,-20.15926 0.32457,-27.9579 1.2,-28.83333 1.55247,-1.55247 8.04753,-1.55247 9.6,0 0.79039,0.79039 1.2,5.02067 1.2,12.39301 0,9.28407 0.26977,11.29653 1.58179,11.8 2.54671,0.97727 25.77554,0.66657 27.40975,-0.36662 1.14243,-0.72227 1.57678,-3.62807 1.85571,-12.41465 l 0.36416,-11.47166 3.92888,-0.66378 c 7.04185,-1.18971 6.9236,-1.72357 6.62505,29.90888 L 641.5,682.5 l -4.38586,0.31414 c -2.41223,0.17277 -4.88723,-0.18713 -5.5,-0.79978 -0.65304,-0.65291 -1.16469,-5.2783 -1.23627,-11.1761 -0.0893,-7.35311 -0.49311,-10.29714 -1.5,-10.93491 -1.55143,-0.98266 -24.84846,-1.2356 -27.29608,-0.29636 -1.29923,0.49856 -1.58179,2.4278 -1.58179,10.8 0,6.59456 -0.42364,10.61665 -1.2,11.39301 -1.2649,1.2649 -8.99493,1.67174 -10.13333,0.53333 z m 155.0461,0.0461 C 743.32075,681.98741 743,668.92524 743,653.35239 V 625.0381 l 2.56741,-0.64438 c 5.51078,-1.38311 7.81484,0.52865 23.02699,19.10628 8.10654,9.9 15.22661,18 15.82238,18 0.72785,0 1.17251,-5.95501 1.3554,-18.15152 0.19851,-13.23908 0.60447,-18.26861 1.5,-18.58416 0.6753,-0.23794 3.14714,-0.23434 5.49298,0.008 l 4.26516,0.44063 -0.26516,28.64352 L 796.5,682.5 l -4.3787,0.31379 c -5.4832,0.39293 -5.92857,-0.016 -22.82936,-20.9593 -7.03557,-8.71843 -13.34429,-15.85232 -14.01938,-15.85309 -0.91519,-10e-4 -1.29678,4.64125 -1.5,18.2486 L 753.5,682.5 l -4.53723,0.2961 c -2.49548,0.16286 -4.85798,-0.0246 -5.25,-0.41667 z m 78.03723,0.0468 C 821.3375,682.00845 821,668.98077 821,653.47579 v -28.19088 l 6.14669,-0.64245 c 31.51545,-3.29402 49.63397,6.9511 49.80942,28.16472 0.10449,12.63447 -4.89725,21.06882 -15.62771,26.35277 -6.70399,3.30121 -6.96917,3.34404 -22.80563,3.6829 -8.81252,0.18856 -16.36027,10e-4 -16.77277,-0.41667 z m 33.99316,-11.98548 c 6.40404,-3.19127 9.3997,-8.56205 9.3997,-16.85232 C 865.14286,640.58089 856.79592,634 840.29777,634 831.91011,634 832,633.79467 832,652.9534 c 0,9.28566 0.27314,17.59483 0.60699,18.46481 0.48911,1.2746 2.29592,1.58179 9.30365,1.58179 7.32569,0 9.50631,-0.40346 13.83252,-2.5593 z m 41.92351,11.89263 C 897.3,681.96667 897,668.96481 897,653.44032 c 0,-24.81624 0.1911,-28.29967 1.58179,-28.83333 C 899.45177,624.27314 909.07167,624 919.95934,624 c 21.89891,0 22.43791,0.1525 21.85889,6.18468 L 941.5,633.5 l -15.43009,0.27702 c -9.61288,0.17258 -15.94414,0.70364 -16.7936,1.40863 -0.94531,0.78454 -1.27346,2.99987 -1.06991,7.22298 L 908.5,648.5 923,649 l 14.5,0.5 0.30588,4.21692 c 0.37676,5.19403 0.35145,5.20237 -16.80588,5.53832 L 908.5,659.5 v 6.5 6.5 l 16.46067,0.5 16.46067,0.5 0.69603,3.41135 C 943.388,683.13891 943.89124,683 920.05968,683 c -11.94949,0 -22.02635,-0.3 -22.39301,-0.66667 z m 66.0461,0.0461 C 963.32075,681.98741 963,668.92524 963,653.35239 V 625.0381 l 2.56991,-0.645 c 4.80862,-1.20689 29.63486,0.25602 34.42636,2.0286 14.58323,5.39495 17.49143,21.75667 5.82933,32.79583 -3.2413,3.06814 -4.7179,5.16593 -4.2232,6 0.4182,0.70536 3.1538,4.54062 6.079,8.5228 2.9252,3.98219 5.3186,7.71616 5.3186,8.29772 0,0.66204 -2.3337,0.94607 -6.2417,0.75967 l -6.2418,-0.29772 -4.76786,-7 c -6.30003,-9.24947 -7.9279,-10.5 -13.66829,-10.5 -6.98358,0 -7.96807,1.18629 -8.29886,10 l -0.28149,7.5 -4.53723,0.2961 c -2.49548,0.16286 -4.85798,-0.0246 -5.25,-0.41667 z M 992,654.91458 c 5.49376,-1.26543 8.7693,-4.16812 9.58,-8.48945 0.8313,-4.4311 -1.3192,-8.5438 -5.58115,-10.67358 -4.18819,-2.09292 -18.86819,-2.48221 -20.79885,-0.55155 -0.75048,0.75048 -1.2,4.47785 -1.2,9.95031 0,7.27866 0.29432,8.92173 1.75,9.76959 2.26343,1.31833 10.51521,1.31563 16.25,-0.005 z M 668,529.39756 C 648.35908,527.0285 632.51646,522.29774 607.5,511.3317 594.77673,505.75441 593.98563,505.31426 579,495.4748 559.72516,482.81908 548.809,473.96211 532.60246,457.82954 524.40881,449.67329 517.35775,443 516.93342,443 c -0.42432,0 -3.37939,2.22541 -6.56682,4.94535 -10.6309,9.0717 -34.37062,20.88282 -45.65345,22.71377 -2.98301,0.48408 -3.6781,0.0896 -7.01219,-3.97919 C 455.66543,464.19584 454,461.72968 454,461.19956 c 0,-0.53011 3.9375,-2.18738 8.75,-3.68281 15.03163,-4.67092 34.23465,-15.09515 43.15092,-23.4242 l 3.19905,-2.98835 -3.09828,-5.3021 c -13.38205,-22.90077 -19.08472,-40.57688 -20.46511,-63.434 -0.51439,-8.51755 -0.2172,-12.03693 1.86517,-22.08811 3.22576,-15.57005 6.50556,-23.53253 14.81042,-35.95574 18.69905,-27.97185 49.6066,-44.41334 86.17365,-45.84071 l 11.88583,-0.46395 4.67341,-4.37143 c 21.51417,-20.12398 46.98768,-30.58589 74.55494,-30.61951 21.71679,-0.0265 37.59126,5.64246 51.08307,18.24231 6.18344,5.77465 8.23668,8.55539 12.17721,16.49179 l 4.73972,9.54598 v 13.59564 c 0,13.15924 -0.10051,13.80775 -3.13127,20.20418 -3.11908,6.58282 -7.77424,11.30887 -11.86873,12.04943 -1.63535,0.29579 -2.09135,1.36273 -2.50102,5.85188 -0.6175,6.76651 -3.64494,11.87148 -8.69957,14.66951 -8.02908,4.44456 -15.42169,3.7862 -21.9615,-1.95583 C 694.93687,327.85937 693,323.54815 693,317.61615 c 0,-5.21396 -0.74222,-5.90634 -18.55003,-17.30452 -21.65989,-13.86376 -42.65281,-23.06386 -60.22255,-26.3924 -7.69221,-1.45727 -8.09422,-1.17199 -15.7193,11.15487 -7.10487,11.48587 -12.09307,21.56779 -19.01187,38.4259 -7.04741,17.1715 -9.33887,23.63657 -10.50015,29.62487 -0.49328,2.54369 -2.65757,8.39369 -4.80953,13 -2.15196,4.60632 -4.25563,9.50013 -4.67482,10.87513 -1.60021,5.2489 -10.67621,24.19994 -15.00278,31.3264 -2.4859,4.09461 -7.21737,10.96294 -10.51439,15.26296 -3.29702,4.30003 -5.99458,8.10273 -5.99458,8.45045 0,1.30595 14.18957,16.70999 21.20592,23.02091 30.98485,27.8696 66.51964,47.98508 100.79408,57.05736 16.26606,4.30555 36.38349,5.10322 49.48467,1.9621 14.76053,-3.53895 27.57999,-12.18616 32.94248,-22.22092 4.16244,-7.78914 5.3347,-8.85926 9.70478,-8.85926 2.95644,0 4.18689,0.55695 5.4334,2.45936 2.17429,3.31839 1.24476,6.9772 -3.72674,14.66907 -12.14193,18.78594 -32.04958,28.54566 -59.83859,29.33586 -6.875,0.19549 -14.075,0.16547 -16,-0.0667 z M 522.78668,415.25 c 9.44212,-11.98346 23.0059,-39.085 26.61827,-53.18545 0.81336,-3.17485 3.02492,-9.10068 4.91457,-13.16851 1.88965,-4.06782 3.76812,-8.52104 4.17438,-9.89604 3.92575,-13.28681 16.45988,-41.93947 24.46852,-55.93434 2.77067,-4.84165 5.03758,-9.37425 5.03758,-10.07243 0,-2.86316 -23.44287,1.57436 -34.76168,6.58008 -3.11784,1.37886 -10.03243,5.41199 -15.36575,8.96253 -19.32508,12.86523 -32.71927,32.41277 -36.02058,52.56861 -1.99627,12.18801 -1.54514,34.03595 0.88598,42.90771 C 506.69411,398.44911 516.25785,419 519.02022,419 c 0.44645,0 2.14135,-1.6875 3.76646,-3.75 z M 728.93714,299.43807 c 9.28474,-14.64052 5.44041,-35.46651 -9.01777,-48.85223 -6.74775,-6.24723 -10.14441,-8.19314 -20.41937,-11.69806 -6.07631,-2.0727 -8.84738,-2.38651 -21,-2.37817 -16.12166,0.0111 -24.31726,1.83824 -38,8.4719 -8.69496,4.21548 -20,12.72944 -20,15.06223 0,0.95937 3.75329,2.73641 11,5.20807 18.97695,6.47253 33.75683,14.0172 55.85503,28.51225 11.48635,7.53434 13.18987,8.3542 16,7.70034 5.61398,-1.30626 13.99812,-0.9083 17.14497,0.81379 4.44654,2.43334 5.26822,2.15675 8.43714,-2.84012 z m 111.07893,229.02762 c -17.36575,-3.1414 -33.48984,-10.92566 -42.70146,-20.61508 -4.8355,-5.08631 -10.31667,-14.821 -10.2993,-18.29178 0.0195,-3.89643 0.86603,-5.18302 4.259,-6.47302 4.15241,-1.57874 7.00925,0.30406 10.84508,7.14744 4.35337,7.76671 11.35671,13.90977 21.38061,18.75425 12.09686,5.84633 15.22709,6.47464 32,6.42322 20.16315,-0.0618 34.83117,-3.2148 56.5,-12.14503 22.36246,-9.21609 47.75576,-25.20914 68.38736,-43.0713 C 990.79122,451.18707 1007,434.21624 1007,432.33056 c 0,-0.71952 -1.9609,-3.90075 -4.3575,-7.06939 -10.20635,-13.49395 -20.23706,-31.70617 -26.26572,-47.68921 -1.88202,-4.98958 -4.51382,-11.11578 -5.84843,-13.61379 -1.33462,-2.49801 -2.92195,-6.7523 -3.52741,-9.45399 -1.34709,-6.01099 -12.60324,-35.3651 -18.79118,-49.00418 -4.72056,-10.40478 -15.32663,-27.61677 -19.03352,-30.88843 -2.86334,-2.52716 -7.92171,-1.79273 -23.47969,3.40902 -16.68089,5.57719 -32.06344,13.84644 -54.76156,29.43838 -7.44791,5.11617 -8.93499,7.06204 -8.93499,11.69165 0,13.52798 -17.18142,22.28924 -28.72707,14.6487 C 808.45259,330.60936 805,324.09825 805,318.1977 c 0,-3.75374 -0.32503,-4.3099 -3.25,-5.56112 C 797.2291,310.70267 793.59559,306.53156 790.30654,299.5 787.67953,293.88382 787.5,292.66239 787.5,280.40607 v -13.09393 l 4.86363,-9.7973 c 12.169,-24.51322 36.16601,-36.90068 68.13637,-35.17257 25.14902,1.3594 48.72858,11.87117 69.19014,30.84497 l 5.19014,4.81276 8.30986,0.006 c 9.13149,0.006 25.31225,2.17491 32.78219,4.39324 20.94749,6.22074 42.02437,20.61394 54.28847,37.07312 16.9731,22.77876 22.5588,46.20159 18.268,76.60367 -2.2869,16.20365 -6.7766,28.77834 -15.9591,44.69804 -2.5133,4.35741 -4.5697,8.63077 -4.5697,9.49637 0,0.8656 1.9125,3.213 4.25,5.21645 10.0296,8.59629 23.9212,16.11805 39.9951,21.65583 5.3598,1.84656 9.7473,3.83888 9.75,4.42738 0.01,1.95455 -7.1204,9.43 -8.9933,9.43 -3.3482,0 -19.3452,-6.12214 -29.0018,-11.09912 -5.225,-2.69294 -12.6082,-7.25979 -16.4071,-10.14857 -3.7988,-2.88877 -7.4856,-5.68379 -8.1928,-6.21116 -0.9417,-0.70224 -4.0012,1.90652 -11.4319,9.74769 -12.52171,13.21354 -27.40155,26.14546 -40.50901,35.20605 -5.47756,3.78637 -11.26046,7.9486 -12.8509,9.2494 -3.93952,3.22205 -32.92476,17.20534 -44.60829,21.52027 -17.50049,6.46323 -40.66373,10.82033 -56.5,10.62786 -3.3,-0.0401 -9.36777,-0.68214 -13.48393,-1.42673 z M 1018.8037,416.25 c 5.7261,-8.11766 13.2409,-27.5042 15.2142,-39.25 1.8283,-10.88187 0.6788,-34.53082 -2.1192,-43.60159 -4.8173,-15.61663 -16.9425,-32.73195 -30.1004,-42.48791 -9.58593,-7.10754 -23.65814,-14.09332 -32.89454,-16.32964 -8.99785,-2.17857 -21.22557,-3.64104 -22.21903,-2.65747 -0.4484,0.44393 1.05418,3.68028 3.33906,7.19188 6.64117,10.20671 16.48617,31.12649 22.53491,47.88473 3.07702,8.525 6.97258,18.6428 8.6568,22.484 1.68422,3.84119 4.38701,11.26619 6.00618,16.5 4.69198,15.16625 25.22512,53.016 28.76072,53.016 0.4848,0 1.7543,-1.2375 2.8213,-2.75 z M 813.4691,303.44774 c 3.96494,-2.99751 9.22946,-3.67729 15.14977,-1.95621 l 5.5031,1.5998 16.68902,-11.13421 c 18.22597,-12.1596 37.11449,-21.84171 52.68901,-27.00798 5.5,-1.82442 10.41687,-3.67369 10.92637,-4.1095 2.08117,-1.78015 -8.30822,-9.74109 -21.13805,-16.1972 -12.16341,-6.12075 -22.91845,-8.71274 -36.78832,-8.86606 -17.96074,-0.19854 -30.44584,4.26115 -41.53153,14.83511 -12.48823,11.91175 -16.6221,27.55711 -11.36926,43.02899 1.83869,5.41572 5.45378,11.34345 6.90079,11.31534 0.55,-0.0107 1.8861,-0.68932 2.9691,-1.50808 z"
         id="path1216" />
      <path
         style="fill:#4a73a5"
         d="M 681,681.11169 C 674.56366,678.82371 668.97659,673.20292 667.18079,667.2091 666.45102,664.77332 666,655.9386 666,644.07919 v -19.18877 l 4.75,0.30479 4.75,0.30479 0.5,19.5 c 0.43,16.76988 0.76399,19.93604 2.38554,22.61446 5.47497,9.04333 21.71582,9.66007 27.85182,1.05766 2.12096,-2.97349 2.29395,-4.42446 2.76264,-23.17212 l 0.5,-20 h 4.5 4.5 v 19 c 0,10.45 -0.3597,20.69712 -0.79932,22.77138 -1.04074,4.91042 -6.07802,10.56559 -11.57846,12.99873 -6.5546,2.89945 -18.23271,3.29066 -25.12222,0.84158 z m -141.01531,-21.8069 c -0.008,-12.54263 -0.36077,-23.34835 -0.783,-24.01269 -0.48151,-0.75762 -4.11043,-1.31679 -9.73469,-1.5 L 520.5,633.5 520.1925,629.25 519.885,625 h 24.4481 24.44809 l 0.41331,3.5403 c 0.22732,1.94717 -0.0834,3.95251 -0.69043,4.45632 -0.60706,0.50382 -4.90632,1.04818 -9.55391,1.2097 L 550.5,634.5 550,658 l -0.5,23.5 -4.75,0.30479 -4.75,0.30479 -0.0153,-22.80479 z M 589.23433,653.80543 589.5,625.5 h 4.5 4.5 l 0.5,12 0.5,12 h 15.5 15.5 l 0.5,-12 0.5,-12 h 4.5 4.5 l 0.26567,28.30543 0.26566,28.30543 -4.76566,-0.30543 L 631.5,681.5 l -0.5,-11 -0.5,-11 H 615 599.5 l -0.5,11 -0.5,11 -4.76567,0.30543 -4.76566,0.30543 z M 743.48796,679.75 c -0.30258,-1.2375 -0.42366,-13.95 -0.26905,-28.25 l 0.28109,-26 3.73276,-0.30934 c 2.05302,-0.17013 4.379,0.0549 5.16884,0.5 1.33481,0.75227 5.81184,6.09888 23.94172,28.592 4.26656,5.29337 7.69036,8.66523 8.61784,8.48708 1.30832,-0.2513 1.57963,-3.11085 1.81111,-19.08907 l 0.27228,-18.79349 4.22772,0.30641 4.22773,0.30641 0.26557,28.25 0.26558,28.25 h -4.38822 c -5.19377,0 -5.88813,-0.67089 -23.54586,-22.75 C 760.82495,650.157 756.03102,645 754.85032,645 753.11657,645 753,646.1655 753,663.5 V 682 h -4.48095 c -3.81723,0 -4.56243,-0.33327 -5.03109,-2.25 z m 78.45404,0 c -0.73819,-28.63796 -0.92867,-50.66697 -0.45445,-52.55643 l 0.60266,-2.40116 15.70489,0.42746 c 17.8733,0.48649 24.2432,2.20172 30.40674,8.18768 5.83262,5.66457 7.29816,9.79973 7.29816,20.59245 0,8.58139 -0.26807,9.95603 -2.7723,14.21611 -3.41826,5.81502 -7.82672,9.26712 -15.09816,11.82283 -4.5907,1.6135 -8.24247,1.96106 -20.60456,1.96106 -14.89761,0 -15.02547,-0.0191 -15.08298,-2.25 z m 34.85741,-8.74595 c 6.53869,-3.69239 8.70059,-7.93462 8.70059,-17.07292 0,-6.53674 -0.36601,-8.12251 -2.68402,-11.62885 C 858.68394,636.05193 853.46588,634 841.70333,634 c -9.38654,0 -9.68271,0.0697 -10.27173,2.41651 -0.89249,3.55597 -0.08,34.85337 0.94613,36.44467 0.67126,1.04099 3.14112,1.26821 10.5,0.96596 7.87111,-0.32329 10.40472,-0.83706 13.92168,-2.82309 z m 40.90137,-16.01024 c -0.34025,-14.87437 -0.3606,-27.71674 -0.0452,-28.53861 0.48832,-1.27255 3.70998,-1.45431 21.70892,-1.22475 L 940.5,625.5 l 0.30259,3.61962 c 0.39015,4.66693 -0.30071,4.84921 -18.4456,4.86673 C 906.49694,634.00166 907,633.75069 907,641.64753 907,649.92703 907.14061,650 923.09555,650 h 14.02518 l -0.31036,3.75 -0.31037,3.75 -13.43405,0.28031 c -7.81675,0.1631 -13.98431,0.73697 -14.75,1.37244 -1.68987,1.40247 -1.73753,10.8997 -0.066,13.14109 1.06286,1.42516 3.6454,1.71577 17.25,1.94113 l 16,0.26503 v 3.5 3.5 l -21.59029,0.26906 -21.59029,0.26905 -0.61864,-27.0443 z M 964,653.55479 V 625 h 13.45078 c 7.39793,0 15.70648,0.48376 18.46344,1.07502 9.39628,2.01515 15.06418,7.64455 15.84148,15.73391 0.693,7.2131 -1.2253,11.9552 -7.0359,17.39211 l -5.02415,4.70105 6.15215,8.46767 c 3.3837,4.65723 6.1522,8.72926 6.1522,9.04896 0,0.3197 -2.4532,0.58128 -5.4516,0.58128 h -5.4516 l -5.86155,-8.25 -5.86157,-8.25 H 981.93684 974.5 l -0.5,8 -0.5,8 -4.75,0.30479 -4.75,0.30479 z m 34.48625,-0.584 c 5.11795,-5.12297 4.84255,-13.18697 -0.58775,-17.21151 -2.8157,-2.08679 -16.4016,-3.60278 -21.29057,-2.37572 L 974,634.0381 v 11.06943 11.06942 l 10.97977,-0.33847 c 10.18653,-0.31403 11.16231,-0.5212 13.50648,-2.86769 z M 659.21971,527.40729 c -16.06724,-2.69553 -40.3824,-11.04546 -59.14512,-20.31071 -9.52832,-4.70518 -33.51404,-20.3947 -44.89501,-29.36667 -4.22377,-3.32973 -14.38347,-12.73112 -22.57712,-20.89198 C 524.40881,448.67707 517.32182,442 516.85359,442 c -0.46822,0 -3.88933,2.45894 -7.60245,5.46431 -12.51153,10.12673 -42.5658,24.13786 -46.75162,21.79536 -1.48838,-0.83294 -6.68455,-7.40797 -6.22088,-7.87165 0.14036,-0.14036 4.73732,-1.87766 10.21546,-3.86066 17.75096,-6.42559 40.82295,-20.31849 42.15618,-25.38453 0.40369,-1.53396 -0.13724,-3.62939 -1.54888,-6 -4.99293,-8.38477 -12.27635,-23.62188 -14.59965,-30.54287 -3.57903,-10.66176 -5.18909,-19.49025 -5.95078,-32.63021 -2.0474,-35.31958 16.42133,-69.43749 47.65913,-88.04233 17.38615,-10.35496 31.73726,-14.52298 53.69725,-15.59536 l 13.40736,-0.65473 7.25102,-6.60981 c 36.61249,-33.37483 94.48195,-37.62345 122.44241,-8.98939 12.86812,13.17814 18.81806,30.61405 15.98957,46.85643 C 744.82677,302.401 738.169,312 731.69334,312 c -2.50503,0 -2.61513,0.23023 -2.55409,5.34084 0.0958,8.01983 -2.90769,13.1775 -9.4466,16.22197 -6.05826,2.82067 -9.35393,3.02338 -14.46112,0.88946 C 697.71201,331.31042 694,325.90008 694,318.08205 c 0,-4.88432 -0.13911,-5.12192 -5.25,-8.96724 -8.08504,-6.083 -26.92264,-17.68037 -36.56706,-22.5125 -18.81865,-9.4287 -41.77137,-16.09074 -46.18084,-13.40403 -2.71083,1.65172 -14.97032,21.28795 -19.50977,31.24911 -6.33239,13.89551 -14.24018,33.92966 -17.78297,45.05261 -4.0144,12.60362 -13.93487,37.0248 -19.62667,48.31489 -3.72381,7.38645 -12.78568,21.44416 -19.05495,29.56001 -2.9552,3.82563 -2.97122,3.91279 -1.2605,6.85515 3.06526,5.27208 22.39035,24.03795 34.20282,33.21306 30.45529,23.65558 57.21323,37.59747 87.68622,45.68783 10.78544,2.86346 13.27339,3.15399 27.84372,3.25142 12.35979,0.0827 17.43183,-0.28776 22.2934,-1.62811 14.58081,-4.01996 25.98665,-12.13137 32.6989,-23.25425 4.86558,-8.06277 7.82338,-9.83363 11.9302,-7.14273 4.65083,3.04733 3.35994,7.76727 -5.4021,19.75199 -11.92114,16.30572 -33.56499,25.04377 -61.40139,24.78896 -6.11546,-0.056 -14.84514,-0.7269 -19.3993,-1.49093 z M 524.2328,415.23904 c 9.43271,-13.12964 20.00572,-33.89616 25.27513,-49.64305 1.45472,-4.34721 4.79373,-13.34721 7.42003,-20 2.6263,-6.6528 6.03963,-15.47099 7.58518,-19.59599 7.35506,-19.63033 17.11765,-39.92198 23.71191,-49.28549 3.34242,-4.74607 1.83713,-6.06043 -5.98784,-5.22835 -38.46382,4.09013 -71.16312,30.59821 -80.34877,65.13568 -2.89391,10.88095 -3.15424,33.42748 -0.51712,44.78769 3.6483,15.71623 14.36683,38.59047 18.08292,38.59047 0.74698,0 2.89733,-2.14243 4.77856,-4.76096 z m 204.9127,-114.7441 c 6.93679,-10.13152 7.55712,-24.27156 1.61384,-36.78642 -5.96686,-12.56451 -13.94888,-19.67623 -27.96785,-24.91844 -7.23453,-2.70526 -9.90782,-3.15924 -20.97107,-3.56133 -14.32448,-0.52063 -23.08859,0.93243 -35.65451,5.9114 C 634.4003,245.80202 619,256.48569 619,259.98599 c 0,1.33434 2.88318,2.7431 12.25,5.98552 20.83638,7.21272 34.12319,14.02967 57.23505,29.36511 l 11.98505,7.95246 4.2793,-1.14454 c 6.03254,-1.61346 10.12971,-1.38775 14.7506,0.81261 5.31358,2.53019 6.42087,2.24753 9.6455,-2.46221 z m 109.48732,226.95254 c -23.82497,-4.7343 -41.72251,-16.60695 -49.61667,-32.91411 -2.69445,-5.566 -2.11058,-9.16677 1.72275,-10.6242 4.592,-1.74587 6.89504,-0.37592 10.38932,6.18002 5.75057,10.78918 18.25575,19.72308 34.37178,24.55576 8.09708,2.42805 30.48526,2.39726 42.5,-0.0584 30.26769,-6.18645 57.13233,-19.11929 89.58889,-43.12877 C 980.16822,462.15229 1008,435.36345 1008,432.56096 c 0,-0.87537 -2.1975,-4.6222 -4.8833,-8.32627 C 988.45184,404.0098 980.97957,388.83767 968.03366,353 c -6.78164,-18.77338 -15.68117,-41.30031 -19.92655,-50.43908 -5.24546,-11.29161 -16.53988,-28.34535 -19.7376,-29.80233 -1.88573,-0.85919 -4.1728,-0.70367 -10.15181,0.69032 -18.83266,4.3908 -41.08149,15.08307 -62.68532,30.1251 l -13.03238,9.07402 -0.72559,5.76845 c -0.94612,7.52172 -3.59751,11.62511 -9.63463,14.91092 -6.1204,3.33115 -11.37594,3.43715 -17.2325,0.34758 -5.95582,-3.14194 -8.86919,-8.36027 -8.89083,-15.92498 -0.0156,-5.44058 -0.14911,-5.75 -2.48165,-5.75 -3.72041,0 -8.91167,-5.22009 -11.97125,-12.03774 -10.0375,-22.36654 -0.70479,-49.83319 22.19476,-65.32032 10.7158,-7.24716 26.50771,-11.64125 41.74169,-11.61458 23.30374,0.0408 50.7695,10.78305 69,26.98688 3.85,3.422 7.9,6.79461 9,7.49469 1.2374,0.78752 7.14753,1.47265 15.5,1.79681 60.0994,2.33251 104.4377,49.31338 99.9025,105.85681 -0.5001,6.2356 -1.3696,13.88083 -1.9321,16.9894 -2.0028,11.06677 -8.1679,26.48826 -15.8431,39.63007 -2.27,3.88681 -4.1273,8.00505 -4.1273,9.15165 0,4.85479 27.6406,21.73591 44.9797,27.47071 4.1138,1.36063 7.6104,2.86585 7.7701,3.34493 0.1597,0.47908 -1.2038,2.59947 -3.0299,4.71198 l -3.3202,3.84092 -8.4962,-2.64794 c -14.4559,-4.50534 -29.5,-12.59854 -41.5065,-22.32906 -2.2566,-1.82887 -4.3949,-3.32521 -4.7517,-3.32521 -0.3568,0 -7.2855,6.67195 -15.397,14.82656 -29.03207,29.18614 -57.89247,48.38012 -91.7483,61.01838 -25.9046,9.6701 -53.93683,13.36422 -72.86718,9.60254 z M 1018.9976,417.27587 c 1.1786,-1.49828 3.702,-5.96569 5.6076,-9.92758 10.4856,-21.80061 13.4324,-41.12258 9.8899,-64.84829 -2.7863,-18.66122 -15.797,-39.92565 -31.7554,-51.90042 -14.97348,-11.2357 -32.71224,-18.15829 -49.4897,-19.31346 -7.52945,-0.51842 -8.25,-0.40851 -8.25,1.25847 0,1.00458 0.86842,2.75551 1.92981,3.89096 3.74782,4.00929 17.03517,30.63054 22.09109,44.25959 2.81664,7.59267 7.96069,21.22986 11.43123,30.30486 3.47055,9.075 6.86384,18.3 7.54066,20.5 3.66313,11.90704 24.75071,48.5 27.94921,48.5 0.5021,0 1.8771,-1.22586 3.0556,-2.72413 z M 820.47094,301.43947 c 1.98615,-0.3726 5.54061,-2.4e-4 8.62298,0.90333 l 5.24399,1.53723 17.3633,-11.52772 c 19.02436,-12.63051 37.71849,-22.12114 54.04879,-27.43947 7.67941,-2.50097 10.25,-3.76513 10.25,-5.04073 0,-3.95834 -19.67652,-16.19633 -33.64758,-20.92743 -33.14393,-11.2237 -66.14791,-0.99925 -77.78134,24.09624 -5.69991,12.29577 -5.50958,23.75918 0.59739,35.98031 1.85393,3.71005 2.73727,6.7004 2.34466,7.9374 -0.5276,1.66232 0.19922,1.42674 4.47444,-1.45027 2.8074,-1.88924 6.62492,-3.72024 8.48337,-4.06889 z"
         id="path1214" />
      <path
         style="fill:#3a5d8e"
         d="m 541.75,681.31067 c -1.60356,-0.41905 -1.75,-2.40866 -1.75,-23.77701 0,-20.34201 -0.20198,-23.39719 -1.58179,-23.92667 -0.86998,-0.33385 -5.36998,-0.60699 -10,-0.60699 H 520 v -3.5 -3.5 h 24.5 24.5 v 3.5 3.5 h -8.8 c -5.51111,0 -9.24848,0.44848 -10,1.2 -0.86466,0.86466 -1.2,7.71111 -1.2,24.5 V 682 l -2.75,-0.116 c -1.5125,-0.0638 -3.5375,-0.3218 -4.5,-0.57333 z m 90.71943,-0.17457 C 632.21125,680.87791 632,676.10667 632,670.53333 c 0,-6.54814 -0.42456,-10.55789 -1.2,-11.33333 -0.82374,-0.82374 -5.77778,-1.2 -15.8,-1.2 -10.02222,0 -14.97626,0.37626 -15.8,1.2 -0.77799,0.77799 -1.2,4.82222 -1.2,11.5 V 681 h -4 -4 V 653.5 626 h 4 4 v 10.56574 c 0,5.81116 0.46583,11.43616 1.03518,12.5 0.9517,1.77827 2.22592,1.93426 15.8,1.93426 10.15042,0 15.13985,-0.37503 15.96482,-1.2 0.79174,-0.79174 1.2,-5.04444 1.2,-12.5 V 626 h 4 4 v 27.39059 27.3906 l -3.53057,0.41217 c -1.94181,0.2267 -3.74181,0.20093 -4,-0.0573 z m 49.25903,-0.40583 c -5.40695,-1.76374 -10.67715,-6.35368 -12.76286,-11.1155 -2.05142,-4.68351 -2.46475,-10.36666 -2.17203,-29.86477 L 667,626 h 3.89217 3.89218 l 0.39385,18.75 c 0.32046,15.25582 0.72001,19.41831 2.14405,22.33622 2.46753,5.05606 8.64592,8.35208 15.68584,8.36799 7.212,0.0163 11.78228,-2.59994 14.74191,-8.43898 2.0895,-4.12235 2.25,-5.7436 2.25,-22.72712 V 626 h 4 4 v 18.7566 c 0,10.31613 -0.43773,20.28288 -0.97273,22.14833 -2.83654,9.89043 -9.7779,14.34809 -23.01294,14.77863 -4.82887,0.15708 -10.14685,-0.25555 -12.28587,-0.95329 z M 828.75,681.2512 822,680.90862 V 653.45431 626 l 13.75,0.0119 c 20.2649,0.0175 29.89261,3.20145 35.25663,11.65964 5.82941,9.19202 6.0139,21.49864 0.46424,30.96841 -5.95174,10.15587 -18.44337,13.84342 -42.72087,12.61128 z m 27.35486,-8.97338 c 5.65198,-2.50014 8.63719,-6.54461 10.14841,-13.7494 1.97886,-9.43428 -1.42478,-17.99916 -9.01759,-22.69178 -3.11184,-1.92322 -5.43827,-2.36765 -14.0656,-2.68701 -7.01148,-0.25955 -10.71234,-0.007 -11.50357,0.78394 -1.64454,1.64465 -1.12737,37.80621 0.56994,39.85134 1.8122,2.18357 17.80839,1.17354 23.86841,-1.50709 z m 147.62984,9.00444 c -2.1161,-0.3199 -3.908,-2.11133 -7.63151,-7.62935 -2.67637,-3.9662 -5.55284,-7.7812 -6.39216,-8.47777 -1.00808,-0.83663 -4.01816,-1.16614 -8.86853,-0.97082 L 973.5,664.5 l -0.29044,8.25 -0.29044,8.25 H 968.95956 965 v -15.343 c 0,-8.43865 -0.29415,-20.81365 -0.65368,-27.5 L 963.69265,626 h 14.97217 c 18.40822,0 23.51868,1.24694 28.72398,7.0086 3.3162,3.67064 3.6112,4.49514 3.6112,10.09315 0,7.43769 -2.0408,12.08722 -6.8907,15.69901 -1.9851,1.47832 -3.9178,3.12007 -4.29487,3.64832 -0.81157,1.13698 1.07517,4.49437 6.90757,12.29214 2.3529,3.14569 4.278,6.06578 4.278,6.48911 0,0.78422 -2.3123,0.80075 -7.2653,0.0519 z m -6.4097,-26.30711 c 5.5569,-2.68408 7.6163,-12.23744 3.7089,-17.20493 -3.10654,-3.94932 -6.67786,-4.87521 -17.58424,-4.55884 L 973.5,633.5 l -0.287,10.4324 c -0.15785,5.73781 -0.04,11.07615 0.26197,11.86297 0.44255,1.15326 2.53366,1.34468 10.787,0.98744 5.67017,-0.24542 11.49845,-1.05194 13.06303,-1.80766 z M 744,653.5 V 626 h 4.3118 c 4.68134,0 4.70207,0.0219 28.98939,30.67767 3.64996,4.60704 6.52385,7.32233 7.75,7.32233 1.81052,0 1.94924,-0.76283 1.9548,-10.75 0.003,-5.9125 0.295,-14.4625 0.64822,-19 l 0.64222,-8.25 h 3.24934 3.24934 l 0.67092,13.25 c 0.36901,7.2875 0.52761,19.55 0.35245,27.25 l -0.31848,14 -4.00271,0.29541 c -4.62953,0.34168 -6.43685,-1.25298 -17.90187,-15.79541 -13.77588,-17.47357 -16.90258,-21 -18.61958,-21 -0.96902,0 -2.03501,0.7118 -2.36885,1.58179 -0.33385,0.86998 -0.60699,9.19498 -0.60699,18.5 L 752,681 h -4 -4 z m 154,0 V 626 h 21 21 v 3.47523 3.47523 l -16.25,0.27477 -16.25,0.27477 -0.295,7.91317 c -0.21083,5.65526 0.0745,8.14758 1,8.73469 0.71225,0.45183 7.2575,0.82841 14.545,0.83683 L 936,651 v 3 3 h -12.91821 c -7.10502,0 -13.63002,0.27314 -14.5,0.60699 -2.31258,0.88742 -2.31258,15.8986 0,16.78602 0.86998,0.33385 8.51998,0.60699 17,0.60699 H 941 v 3 3 H 919.5 898 Z M 658.46674,526.51198 C 644.52935,524.32813 622.35781,516.78104 602.58847,507.49127 590.7592,501.9326 568.53706,487.39283 554,475.70022 541.23388,465.43203 514.31659,437.9411 510.94653,431.72924 c -1.34559,-2.48027 -4.77487,-8.7215 -7.62062,-13.86941 -9.65614,-17.46777 -13.87887,-30.80977 -15.56539,-49.17987 -1.03381,-11.2605 -0.96194,-14.09105 0.59074,-23.26831 3.44918,-20.38661 7.17895,-29.80042 17.37989,-43.86611 9.19991,-12.68543 20.84916,-22.22447 36.55485,-29.93309 19.48338,-9.56278 32.13702,-12.03678 58.39728,-11.41765 12.41645,0.29274 16.46166,0.73291 18.81672,2.0475 1.65,0.92102 8.4,3.55134 15,5.84514 18.07893,6.28326 37.30967,16.48441 59.77333,31.70738 6.41115,4.34464 6.94966,4.52632 10.071,3.39763 7.54989,-2.73007 18.67548,-0.14423 22.14197,5.1463 0.90322,1.37849 1.87672,4.90369 2.16334,7.83379 0.42593,4.35417 0.0848,6.13994 -1.86699,9.77472 -4.67166,8.69975 -16.24252,11.73703 -24.44695,6.41718 -5.35041,-3.46927 -7.37926,-7.13511 -7.79346,-14.0817 -0.39079,-6.55396 -0.80873,-7.02016 -14.04224,-15.66365 -22.73289,-14.84803 -43.57213,-25.18359 -57.76709,-28.65053 -4.71782,-1.15227 -29.47699,-3.35773 -37.23291,-3.31659 -7.11128,0.0377 -20.65947,2.99901 -29.73733,6.4998 -7.96343,3.07102 -22.27535,11.85539 -29.21982,17.93454 -9.86822,8.63859 -19.75164,23.90323 -24.57513,37.95555 -2.81834,8.21069 -3.93163,33.32849 -1.96775,44.39572 2.78529,15.69618 10.36022,33.48784 18.53225,43.52772 3.41072,4.19029 6.95241,9.07119 7.87043,10.84644 3.81693,7.38113 22.14632,25.47086 39.09735,38.58614 28.24929,21.85694 55.55918,35.72799 86,43.68053 10.78346,2.81714 13.57137,3.14702 27.5,3.25396 12.48184,0.0958 16.76568,-0.24823 22,-1.76695 15.11574,-4.38577 26.58504,-12.58148 33.01572,-23.59233 4.29753,-7.3584 7.00371,-9.10342 10.89114,-7.02294 2.76746,1.4811 2.75967,6.42815 -0.0174,11.04985 -10.16737,16.92086 -24.529,26.54009 -45.66136,30.58338 -8.95649,1.71366 -29.59981,1.6775 -40.76135,-0.0714 z M 834.5,525.61098 c -11.74037,-2.81522 -19.10678,-5.91125 -27.29524,-11.47193 -14.66968,-9.96199 -24.0444,-27.63529 -15.7617,-29.71411 4.17208,-1.04713 6.39397,0.48934 9.71318,6.71682 3.98564,7.47783 11.03096,13.82922 20.90942,18.84994 12.26841,6.23542 17.53469,7.41048 32.93434,7.34859 34.66347,-0.1393 69.91849,-13.85921 109.30069,-42.53564 19.54881,-14.2346 43.85941,-37.85529 45.04091,-43.76264 0.2874,-1.43703 2.8356,-5.07186 5.6626,-8.0774 12.4915,-13.28047 22.9408,-44.22607 21.6811,-64.20894 -1.3683,-21.70373 -2.8607,-27.46977 -10.9094,-42.14704 -11.4307,-20.84459 -33.43674,-37.51121 -57.7759,-43.75746 -12.47299,-3.20098 -37.7677,-3.07183 -51.21594,0.26151 -16.02995,3.97326 -37.31381,13.49015 -51.78406,23.1548 -23.9668,16.00737 -24,16.03666 -24,21.17562 0,17.27649 -22.72039,24.13988 -32.22156,9.73352 -1.22342,-1.85504 -1.76728,-4.64765 -1.77185,-9.09804 -0.006,-6.30045 0.0775,-6.50197 4.45644,-10.69775 5.18428,-4.96741 9.81203,-6.25699 16.26253,-4.53174 6.62261,1.77127 8.38355,1.43639 13.77444,-2.6195 18.32535,-13.78726 44.0222,-27.65131 62.5,-33.72022 6.325,-2.0774 11.97431,-4.14877 12.55403,-4.60304 4.35016,-3.4088 41.46749,-2.47373 56.55691,1.42481 9.59633,2.47933 26.32155,10.0968 34.26146,15.60429 13.5702,9.41302 24.2659,22.26089 32.1045,38.56457 5.1682,10.74948 6.3691,14.81269 8.5466,28.91549 1.3106,8.48855 -0.3583,31.62728 -3.0355,42.08451 -2.2629,8.83912 -8.8519,23.91059 -14.427,33 -2.3615,3.85 -4.5619,8.13612 -4.8898,9.52472 -1.2563,5.31985 -35.65374,38.99825 -53.86436,52.73835 C 960.55049,492.2561 939.02613,506 936.98151,506 c -0.39845,0 -5.39479,2.21354 -11.10298,4.91898 -23.00479,10.90328 -43.09897,15.95096 -66.23975,16.63947 -13.48573,0.40124 -16.23071,0.18859 -25.13878,-1.94747 z M 798.67497,308.6083 c -3.40377,-3.40377 -7.02157,-9.89261 -8.17606,-14.66448 -0.58046,-2.39922 -0.41521,-2.5331 2.69133,-2.18047 2.75981,0.31327 3.59612,-0.0928 5.03315,-2.44383 1.37814,-2.25467 1.72872,-2.43987 1.75,-0.92445 0.0146,1.04229 1.62718,5.22279 3.58344,9.29002 l 3.55682,7.39494 -2.13838,3.45999 c -1.17611,1.90299 -2.31169,3.45998 -2.5235,3.45998 -0.21181,0 -1.91137,-1.52626 -3.7768,-3.3917 z m -69.50993,-0.59894 -2.21108,-2.99065 3.4425,-5.00451 c 1.89338,-2.75249 3.74238,-6.36984 4.10889,-8.03856 0.617,-2.80917 0.91164,-2.98804 3.97522,-2.41331 1.89444,0.3554 4.27114,0.10573 5.56006,-0.58407 2.213,-1.18437 2.23973,-1.13075 1.5747,3.15846 C 744.22544,301.10111 737.49177,311 732.78369,311 c -0.77417,0 -2.40256,-1.34579 -3.61865,-2.99064 z"
         id="path1212" />
    </g>
  </g>
</svg>
