<?xml version="1.0" encoding="UTF-8" standalone="no"?>
<svg
   width="694.76379"
   height="464.04184"
   viewBox="0 0 694.76379 464.04184"
   version="1.1"
   id="svg31"
   sodipodi:docname="thunder.svg"
   inkscape:version="1.2.2 (b0a8486541, 2022-12-01)"
   xmlns:inkscape="http://www.inkscape.org/namespaces/inkscape"
   xmlns:sodipodi="http://sodipodi.sourceforge.net/DTD/sodipodi-0.dtd"
   xmlns="http://www.w3.org/2000/svg"
   xmlns:svg="http://www.w3.org/2000/svg">
  <sodipodi:namedview
     id="namedview33"
     pagecolor="#ffffff"
     bordercolor="#000000"
     borderopacity="0.25"
     inkscape:showpageshadow="2"
     inkscape:pageopacity="0.0"
     inkscape:pagecheckerboard="0"
     inkscape:deskcolor="#d1d1d1"
     showgrid="false"
     inkscape:zoom="0.921875"
     inkscape:cx="1040.2712"
     inkscape:cy="94.915254"
     inkscape:window-width="2048"
     inkscape:window-height="1243"
     inkscape:window-x="0"
     inkscape:window-y="0"
     inkscape:window-maximized="1"
     inkscape:current-layer="svg31" />
  <defs
     id="defs4">
    <style
       id="style2">
      .db { stroke: #3c5f96; fill: none; stroke-width: 16; stroke-linecap: round; stroke-linejoin: round; }
      .lb { stroke: #4b78b6; fill: none; stroke-width: 16; stroke-linecap: round; stroke-linejoin: round; }
      .yl { stroke: #f0c234; fill: none; stroke-width: 16; stroke-linecap: round; stroke-linejoin: round; }
      .dotb { fill: #3c5f96; }
      .doty { fill: #f0c234; }
      .word { fill: #3c5f96; font-family: &quot;Montserrat&quot;, &quot;Poppins&quot;, &quot;Avenir Next&quot;, &quot;Segoe UI&quot;, Arial, sans-serif; font-size: 84px; font-weight: 700; letter-spacing: 4px; }
    </style>
  </defs>
  <g
     id="left"
     transform="translate(-420.61811,-224.98356)">
    <path
       class="yl"
       d="m 595,510 c -15,7 -31,11 -53,8 -72,-11 -109,-50 -113,-97 -4,-42 23,-67 63,-66 21,1 38,1 64,4 31,6 68,20 126,48"
       id="path6" />
    <circle
       class="doty"
       cx="682"
       cy="407"
       r="19"
       id="circle8" />
    <path
       class="lb"
       d="m 448,467 c 46,-9 69,-46 92,-113 29,-79 63,-122 138,-121 49,1 74,32 64,71"
       id="path10" />
    <path
       class="db"
       d="m 742,494 c -22,34 -86,34 -140,5 -84,-46 -132,-108 -113,-179 18,-67 92,-67 152,-38 34,17 58,32 69,38"
       id="path12" />
    <circle
       class="dotb"
       cx="710"
       cy="320"
       r="19"
       id="circle14" />
  </g>
  <g
     transform="matrix(-1,0,0,1,1115.3819,-224.98356)"
     id="g27">
    <path
       class="yl"
       d="m 595,510 c -15,7 -31,11 -53,8 -72,-11 -109,-50 -113,-97 -4,-42 23,-67 63,-66 21,1 38,1 64,4 31,6 68,20 126,48"
       id="path17" />
    <circle
       class="doty"
       cx="682"
       cy="407"
       r="19"
       id="circle19" />
    <path
       class="lb"
       d="m 448,467 c 46,-9 69,-46 92,-113 29,-79 63,-122 138,-121 49,1 74,32 64,71"
       id="path21" />
    <path
       class="db"
       d="m 742,494 c -22,34 -86,34 -140,5 -84,-46 -132,-108 -113,-179 18,-67 92,-67 152,-38 34,17 58,32 69,38"
       id="path23" />
    <circle
       class="dotb"
       cx="710"
       cy="320"
       r="19"
       id="circle25" />
  </g>
  <text
     class="word"
     x="347.3819"
     y="463.01645"
     text-anchor="middle"
     id="text29">THUNDER</text>
</svg>
