<?xml version="1.0" encoding="UTF-8" standalone="no"?>
<svg
   width="694.76379"
   height="464.04184"
   viewBox="0 0 694.76379 464.04184"
   version="1.1"
   id="svg35"
   sodipodi:docname="thunder_v0.0.3.svg"
   inkscape:version="1.2.2 (b0a8486541, 2022-12-01)"
   xmlns:inkscape="http://www.inkscape.org/namespaces/inkscape"
   xmlns:sodipodi="http://sodipodi.sourceforge.net/DTD/sodipodi-0.dtd"
   xmlns="http://www.w3.org/2000/svg"
   xmlns:svg="http://www.w3.org/2000/svg">
  <sodipodi:namedview
     id="namedview37"
     pagecolor="#ffffff"
     bordercolor="#000000"
     borderopacity="0.25"
     inkscape:showpageshadow="2"
     inkscape:pageopacity="0.0"
     inkscape:pagecheckerboard="0"
     inkscape:deskcolor="#d1d1d1"
     showgrid="false"
     inkscape:zoom="0.921875"
     inkscape:cx="309.15254"
     inkscape:cy="296.67797"
     inkscape:window-width="2048"
     inkscape:window-height="1243"
     inkscape:window-x="0"
     inkscape:window-y="0"
     inkscape:window-maximized="1"
     inkscape:current-layer="svg35" />
  <defs
     id="defs4">
    <style
       id="style2">
      .db { stroke: #3c5f96; fill: none; stroke-width: 16; stroke-linecap: round; stroke-linejoin: round; }
      .lb { stroke: #4b78b6; fill: none; stroke-width: 16; stroke-linecap: round; stroke-linejoin: round; }
      .yl { stroke: #f0c234; fill: none; stroke-width: 16; stroke-linecap: round; stroke-linejoin: round; }
      .dotb { fill: #3c5f96; }
      .doty { fill: #f0c234; }
      .word { fill: #3c5f96; font-family: &quot;Montserrat&quot;, &quot;Poppins&quot;, &quot;Avenir Next&quot;, &quot;Segoe UI&quot;, Arial, sans-serif; font-size: 84px; font-weight: 700; letter-spacing: 4px; }
    </style>
  </defs>
  <g
     id="left"
     transform="translate(-420.61811,-224.98356)">
    <!-- yellow: rebuilt as two stroke paths, no ellipse, no bottom crossover -->
    <path
       class="yl"
       d="m 492,355 c -40,-1 -67,24 -63,66 4,47 41,86 113,97 22,3 38,-1 53,-8"
       id="path6" />
    <circle
       class="doty"
       cx="682"
       cy="407"
       r="19"
       id="circle10" />
    <!-- light blue -->
    <path
       class="lb"
       d="m 448,467 c 46,-9 69,-46 92,-113 29,-79 63,-122 138,-121 49,1 74,32 64,71"
       id="path12" />
    <!-- dark blue -->
    <path
       class="yl"
       d="m 496.95621,354.73587 c 75.10594,-0.27728 120.2711,11.75683 183.88419,51.10453"
       id="path8"
       sodipodi:nodetypes="cc"
       style="display:inline" />
    <path
       class="db"
       d="m 742,494 c -22,34 -86,34 -140,5 -84,-46 -132,-108 -113,-179 18,-67 92,-67 152,-38 34,17 58,32 69,38"
       id="path14" />
    <circle
       class="dotb"
       cx="710"
       cy="320"
       r="19"
       id="circle16" />
  </g>
  <g
     transform="matrix(-1,0,0,1,1115.3819,-224.98356)"
     id="g31">
    <path
       class="yl"
       d="m 492,355 c -40,-1 -67,24 -63,66 4,47 41,86 113,97 22,3 38,-1 53,-8"
       id="path19" />
    <circle
       class="doty"
       cx="682"
       cy="407"
       r="19"
       id="circle23" />
    <path
       class="lb"
       d="m 448,467 c 46,-9 69,-46 92,-113 29,-79 63,-122 138,-121 49,1 74,32 64,71"
       id="path25" />
    <path
       class="yl"
       d="M 494.71186,354.52942 C 562.09601,353.25391 628.61816,366.89766 682,407"
       id="path21"
       sodipodi:nodetypes="cc"
       style="display:inline"
       inkscape:label="path21" />
    <path
       class="db"
       d="m 742,494 c -22,34 -86,34 -140,5 -84,-46 -132,-108 -113,-179 18,-67 92,-67 152,-38 34,17 58,32 69,38"
       id="path27" />
    <circle
       class="dotb"
       cx="710"
       cy="320"
       r="19"
       id="circle29" />
  </g>
  <text
     class="word"
     x="347.3819"
     y="463.01645"
     text-anchor="middle"
     id="text33">THUNDER</text>
</svg>
